<svg width="45" height="55" viewBox="0 0 45 55" fill="none" xmlns="http://www.w3.org/2000/svg">
<path d="M22.0215 55C21.8579 55 21.6942 54.9751 21.5363 54.9252C15.2458 52.9388 9.85993 49.0765 5.96041 43.7559C2.0611 38.4352 0 32.1362 0 25.5397V9.13086C0 8.24098 0.721445 7.51953 1.61133 7.51953C6.26538 7.51953 10.4967 4.96762 12.6635 0.85959C12.9423 0.330967 13.491 0 14.0887 0H29.9542C30.5519 0 31.1006 0.330859 31.3794 0.85959C33.5462 4.96762 37.7776 7.51953 42.422 7.51953C43.3119 7.51953 44.043 8.24098 44.043 9.13086V25.5397C44.043 32.1362 41.9819 38.4352 38.0826 43.7558C34.183 49.0764 28.7971 52.9387 22.5067 54.9251C22.3488 54.9751 22.1851 55 22.0215 55Z" fill="#9DDFF6"/>
<path d="M42.4229 7.51953C37.7786 7.51953 33.5472 4.96762 31.3804 0.85959C31.1017 0.330859 30.5529 0 29.9552 0H22.0225V55C22.1861 55 22.3498 54.9751 22.5077 54.9252C28.7981 52.9388 34.184 49.0765 38.0835 43.7559C41.9828 38.4352 44.0439 32.1362 44.0439 25.5397V9.13086C44.0439 8.24098 43.3128 7.51953 42.4229 7.51953Z" fill="#6BA7FF"/>
<path d="M22.0215 48.1446C21.8106 48.1446 21.5997 48.1032 21.4013 48.0205C12.3158 44.2319 6.44531 35.4078 6.44531 25.5398V14.5476C6.44531 13.8516 6.89219 13.2343 7.55337 13.0168C10.9735 11.8925 13.9856 9.8247 16.264 7.03699C16.57 6.66252 17.028 6.44531 17.5116 6.44531H26.5313C27.0149 6.44531 27.473 6.66252 27.779 7.03699C30.0573 9.82513 33.0694 11.8932 36.4896 13.0179C37.1508 13.2353 37.5975 13.8527 37.5975 14.5487V25.5398C37.5975 35.4078 31.7271 44.2319 22.6415 48.0204C22.4432 48.1031 22.2324 48.1446 22.0215 48.1446Z" fill="#F5F5FF"/>
<path d="M36.4907 13.0179C33.0705 11.8932 30.0584 9.82513 27.7801 7.03699C27.474 6.66252 27.0159 6.44531 26.5322 6.44531H22.0225V48.1446C22.2333 48.1446 22.4442 48.1032 22.6426 48.0205C31.7281 44.2319 37.5986 35.4078 37.5986 25.5398V14.5487C37.5986 13.8527 37.1519 13.2353 36.4907 13.0179Z" fill="#E2E7FA"/>
<path d="M19.5159 34.027C19.1035 34.027 18.6911 33.8698 18.3766 33.555L13.3636 28.542C12.7343 27.9128 12.7343 26.8925 13.3636 26.2632C13.9927 25.634 15.013 25.634 15.6423 26.2632L19.516 30.1369L28.4027 21.2503C29.0319 20.621 30.0522 20.621 30.6815 21.2503C31.3107 21.8796 31.3107 22.8997 30.6815 23.529L20.6555 33.555C20.3407 33.8698 19.9283 34.027 19.5159 34.027Z" fill="#6B61B1"/>
<path d="M28.4017 21.2504L22.0215 27.6305V32.1879L30.6803 23.5291C31.3096 22.8998 31.3096 21.8796 30.6803 21.2504C30.0512 20.621 29.0309 20.621 28.4017 21.2504Z" fill="#453D81"/>
</svg>
