<svg width="1132" height="661" viewBox="0 0 1132 661" fill="none" xmlns="http://www.w3.org/2000/svg">
<path fill-rule="evenodd" clip-rule="evenodd" d="M948.931 658.801L953.176 653.142H961.664L958.835 655.971L948.931 658.801ZM856.972 507.422L861.216 514.496L917.807 510.251L919.221 515.91H922.051L920.636 504.592H933.369L947.516 538.546L961.664 554.109L964.494 568.256L981.471 596.551L982.885 624.847L981.471 623.432L980.056 626.261V633.335L982.885 629.091V633.335L974.397 647.483L964.494 653.142L977.226 640.409V637.579L965.908 641.824L961.664 640.409V634.75L958.835 633.335V630.506L953.176 626.261H947.516L940.443 612.114H933.369L930.539 605.04L917.807 588.063L923.466 580.989H919.221L917.807 585.233L913.562 579.574L912.148 572.501L916.392 564.012L912.148 549.864L909.318 547.035L905.074 548.45L886.682 530.058L881.023 527.228L875.364 528.643L873.949 532.887L869.705 534.302V537.132L859.802 542.791L852.728 541.376L851.313 534.302L835.751 527.228L823.018 525.814L804.626 531.473L806.041 521.569L800.382 515.91V513.081L855.557 507.422H856.972Z" fill="white"/>
<path d="M944.687 660.215L947.516 658.801M940.443 660.215H943.272M948.931 658.801L953.176 653.142H961.664L958.835 655.971L948.931 658.801ZM856.972 507.422L861.216 514.496L917.807 510.251L919.221 515.91H922.051L920.636 504.592H933.369L947.516 538.546L961.664 554.109L964.494 568.256L981.471 596.551L982.885 624.847L981.471 623.432L980.056 626.261V633.335L982.885 629.091V633.335L974.397 647.483L964.494 653.142L977.226 640.409V637.579L965.908 641.824L961.664 640.409V634.75L958.835 633.335V630.506L953.176 626.261H947.516L940.443 612.114H933.369L930.539 605.04L917.807 588.063L923.466 580.989H919.221L917.807 585.233L913.562 579.574L912.148 572.501L916.392 564.012L912.148 549.864L909.318 547.035L905.074 548.45L886.682 530.058L881.023 527.228L875.364 528.643L873.949 532.887L869.705 534.302V537.132L859.802 542.791L852.728 541.376L851.313 534.302L835.751 527.228L823.018 525.814L804.626 531.473L806.041 521.569L800.382 515.91V513.081L855.557 507.422H856.972Z" stroke="#A4A4A4" stroke-opacity="0.95" stroke-width="0.517381" stroke-linecap="round" stroke-linejoin="round"/>
<path fill-rule="evenodd" clip-rule="evenodd" d="M832.921 408.389L883.852 401.315L879.608 409.804L889.511 414.048L900.829 428.196L923.465 446.588L929.124 457.906L934.783 462.15L936.198 467.809L941.857 470.638L936.198 477.712V489.03L933.369 493.275L934.783 504.593H922.051V515.911H919.221V513.081L913.562 510.252L861.216 514.496L854.142 503.178V493.275L851.313 489.03L855.557 476.297L847.068 460.735L832.921 409.804V408.389Z" fill="white" stroke="#A4A4A4" stroke-opacity="0.95" stroke-width="0.517381" stroke-linecap="round" stroke-linejoin="round"/>
<path fill-rule="evenodd" clip-rule="evenodd" d="M906.488 357.458L934.784 354.628L1021.08 337.651L1035.23 358.873V368.776L1026.74 374.435L1018.25 388.583L1014.01 387.168L1006.94 389.997L997.033 398.486L992.789 412.633L981.47 415.463L954.59 395.656L931.954 398.486L927.71 392.827L924.88 394.242V391.412L898 394.242L879.608 402.73L858.387 405.56L859.801 397.071H864.046L868.29 388.583H873.949L881.023 381.509H883.852V377.265H886.682L889.511 373.02L893.756 374.435V371.606L899.415 370.191L906.488 361.702V358.873V357.458Z" fill="white" stroke="#A4A4A4" stroke-opacity="0.95" stroke-width="0.517381" stroke-linecap="round" stroke-linejoin="round"/>
<path fill-rule="evenodd" clip-rule="evenodd" d="M746.62 389.998L749.45 385.753V377.265L777.745 374.435L779.159 370.191L855.556 364.532L906.488 356.043V361.702L900.828 370.191L895.169 371.606L890.925 375.85H886.681L873.948 388.583H868.289L864.045 392.827L862.63 398.486H858.386V405.56L756.523 415.463H736.717L740.961 411.219L739.546 405.56L743.791 399.901L742.376 397.071L748.035 391.412L746.62 389.998Z" fill="white" stroke="#A4A4A4" stroke-opacity="0.95" stroke-width="0.517381" stroke-linecap="round" stroke-linejoin="round"/>
<path fill-rule="evenodd" clip-rule="evenodd" d="M1018.25 300.868L1025.33 298.039L1021.08 306.527L1018.25 323.504L1015.42 322.09V307.942L1018.25 303.698L1016.84 302.283L1018.25 300.868ZM897.999 333.408L896.584 336.237L900.828 340.481L906.487 341.896L909.317 339.067L917.805 337.652L919.22 333.408L922.049 334.822L927.709 331.993L930.538 329.163L929.123 324.919L934.782 315.016L937.612 300.868H940.441L941.856 303.698L947.515 300.868L948.93 293.794H951.759L957.418 285.306L960.248 276.817L958.833 273.988L970.151 279.647L971.566 275.403H974.395L977.225 276.817V279.647L987.128 283.891L982.884 295.209L985.714 298.039L988.543 296.624L992.787 300.868H998.446L1006.93 305.112L1009.76 316.43V319.26H1006.93L1008.35 323.504L1014.01 329.163L1016.84 327.749L1021.08 337.652L934.782 354.629L866.874 363.117L881.022 353.214V350.385L893.754 339.067L897.999 333.408Z" fill="white" stroke="#A4A4A4" stroke-opacity="0.95" stroke-width="0.517381" stroke-linecap="round" stroke-linejoin="round"/>
<path fill-rule="evenodd" clip-rule="evenodd" d="M882.437 313.6L886.681 312.186L889.51 306.527V299.453L890.925 296.623H895.169V290.964L900.828 285.305L902.243 286.72L910.732 276.817V252.766L913.561 251.351L916.391 273.987L936.197 271.158L939.027 283.89L946.101 275.402L947.515 276.817L950.345 271.158L954.589 272.572L960.248 268.328H968.737V271.158L971.566 272.572L970.151 279.646L958.833 273.987L960.248 275.402L957.419 286.72L953.174 289.549L951.76 293.794L948.93 292.379L947.515 300.868L944.686 303.697L937.612 300.868V306.527L929.123 324.918L930.538 329.163L922.05 334.822L920.635 333.407V336.236L917.805 337.651H909.317L906.487 341.895H903.658L885.266 324.918L882.437 320.674V315.015V313.6Z" fill="white" stroke="#A4A4A4" stroke-opacity="0.95" stroke-width="0.517381" stroke-linecap="round" stroke-linejoin="round"/>
<path fill-rule="evenodd" clip-rule="evenodd" d="M828.677 235.789L854.142 231.545L862.631 235.789L868.29 234.374L872.534 238.618L885.267 234.374L895.17 224.471L907.903 217.397L913.562 251.351L910.733 266.913L912.147 268.328L909.318 273.987L910.733 275.402L907.903 281.061L895.17 290.964V296.623L889.511 298.038V306.527L885.267 313.6L876.778 310.771L873.949 306.527L869.705 310.771H858.387L855.557 307.941H848.483L844.239 300.868L835.751 302.282L830.092 240.033L828.677 235.789Z" fill="white"/>
<path d="M865.46 231.545V232.959M828.677 235.789L854.142 231.545L862.631 235.789L868.29 234.374L872.534 238.618L885.267 234.374L895.17 224.471L907.903 217.397L913.562 251.351L910.733 266.913L912.147 268.328L909.318 273.987L910.733 275.402L907.903 281.061L895.17 290.964V296.623L889.511 298.038V306.527L885.267 313.6L876.778 310.771L873.949 306.527L869.705 310.771H858.387L855.557 307.941H848.483L844.239 300.868L835.751 302.282L830.092 240.033L828.677 235.789Z" stroke="#A4A4A4" stroke-opacity="0.95" stroke-width="0.517381" stroke-linecap="round" stroke-linejoin="round"/>
<path fill-rule="evenodd" clip-rule="evenodd" d="M777.745 241.448L781.989 242.863L791.892 238.618L828.676 234.374L830.091 240.033L837.165 309.356L831.506 313.6H825.847L827.261 317.845L818.773 326.333V331.992L815.943 333.407L808.869 329.163L806.04 331.992L807.455 336.236L798.966 334.822L796.137 340.481L789.063 336.236L783.404 339.066L780.574 337.651L779.16 341.895L776.33 340.481V334.822L779.16 331.992L777.745 330.577L784.819 317.845V312.186L781.989 307.941L783.404 292.379L779.16 245.692L777.745 241.448Z" fill="white" stroke="#A4A4A4" stroke-opacity="0.95" stroke-width="0.517381" stroke-linecap="round" stroke-linejoin="round"/>
<path fill-rule="evenodd" clip-rule="evenodd" d="M707.008 279.647V275.402L712.667 272.573L715.496 265.499L711.252 257.011L712.667 252.766L721.155 251.351L728.229 242.863L729.644 237.204L718.326 224.471L772.086 221.642L770.672 227.301L774.916 231.545L779.16 245.692L783.404 292.379L781.99 306.527L784.819 310.771V316.43L776.331 334.822L777.745 341.896L774.916 344.725L777.745 348.97L769.257 351.799V360.288L759.353 357.458L756.524 364.532L752.28 363.117L749.45 358.873L750.865 354.629L748.035 347.555L729.644 331.993L733.888 323.504L732.473 316.43L728.229 315.015L725.399 317.845L721.155 307.942L708.422 296.624L705.593 281.061L707.008 279.647Z" fill="white" stroke="#A4A4A4" stroke-opacity="0.95" stroke-width="0.517381" stroke-linecap="round" stroke-linejoin="round"/>
<path fill-rule="evenodd" clip-rule="evenodd" d="M756.525 364.532L759.354 357.458L766.428 360.287L770.673 358.873L769.258 351.799L777.746 348.969L774.917 344.725L780.576 337.651L784.82 339.066L787.65 336.237L796.138 340.481L798.968 334.822L804.627 337.651L807.456 336.237L806.041 331.992L808.871 329.163L815.945 333.407L818.774 326.333L827.263 317.845L825.848 313.6H831.507L837.166 309.356V300.868H844.24L848.484 306.527L856.973 307.941L859.802 310.771H869.705L873.95 306.527L882.438 313.6V319.26L890.927 331.992L895.171 334.822L898.001 333.407L883.853 347.555L879.609 354.628L866.876 363.117L780.576 370.191L779.161 374.435L749.451 377.264V374.435L756.525 373.02L757.94 364.532H756.525Z" fill="white" stroke="#A4A4A4" stroke-opacity="0.95" stroke-width="0.517381" stroke-linecap="round" stroke-linejoin="round"/>
<path fill-rule="evenodd" clip-rule="evenodd" d="M623.537 276.816H670.224L701.349 273.987L705.593 279.646L708.422 296.623L722.57 309.356L725.4 317.844L728.229 315.015L733.888 317.844L729.644 331.992L733.888 337.651L748.036 347.554L750.865 353.213L749.45 358.872L757.939 365.946L756.524 373.02L749.45 374.435L750.865 380.094H748.036L749.45 382.923L746.621 384.338L749.45 385.753L746.621 389.997L733.888 388.582L739.547 382.923L736.718 377.264L647.588 381.508L646.173 313.6L636.27 303.697L641.929 296.623L630.611 289.549L624.952 278.231L623.537 276.816Z" fill="white" stroke="#A4A4A4" stroke-opacity="0.95" stroke-width="0.517381" stroke-linecap="round" stroke-linejoin="round"/>
<path fill-rule="evenodd" clip-rule="evenodd" d="M647.588 381.509L731.058 377.265L739.547 380.094V382.924L733.888 388.583L748.036 391.412L742.377 397.071L743.791 398.486L739.547 408.389L740.962 412.634L732.473 422.537V431.025L729.644 433.855L728.229 432.44L725.399 436.684L723.985 439.514H726.814L722.57 443.758L723.985 448.002H721.155L722.57 449.417L719.74 450.832L722.57 457.906L721.155 467.809L660.321 469.224V456.491H654.662L651.832 453.661V406.975L647.588 385.753V381.509Z" fill="white" stroke="#A4A4A4" stroke-opacity="0.95" stroke-width="0.517381" stroke-linecap="round" stroke-linejoin="round"/>
<path fill-rule="evenodd" clip-rule="evenodd" d="M479.231 363.117L547.14 367.361L647.587 368.776V385.753L651.832 406.974V453.661L643.343 450.832L636.269 445.173L633.44 448.002L626.366 446.587L613.633 452.246L606.559 446.587L603.73 449.417L600.9 446.587L595.241 452.246V446.587L590.997 449.417L586.753 445.173L581.094 448.002L574.02 440.928L566.946 442.343L564.117 439.514L562.702 440.928L555.628 438.099L549.969 432.44L542.895 433.854L537.236 423.951L538.651 380.094L479.231 375.85V365.946V363.117Z" fill="white" stroke="#A4A4A4" stroke-opacity="0.95" stroke-width="0.517381" stroke-linecap="round" stroke-linejoin="round"/>
<path fill-rule="evenodd" clip-rule="evenodd" d="M479.233 375.851L538.652 380.095L537.238 428.197L542.897 433.856L549.971 432.441L554.215 438.1L562.703 440.929L564.118 439.515L566.948 442.344L574.021 440.929L581.095 448.003L585.339 445.174L590.998 449.418L593.828 446.588L595.243 452.247L599.487 446.588L603.731 449.418L606.561 446.588L612.22 452.247L626.367 446.588L633.441 448.003L636.271 445.174L654.663 456.492H660.322L661.736 496.105L665.981 500.349V504.593L673.054 515.911V524.4L668.81 531.474L670.225 544.207L664.566 551.28L667.395 554.11H661.736L650.418 559.769L633.441 575.331L615.049 583.82L596.658 599.382L590.998 609.285L588.169 620.603L593.828 644.654V647.484L588.169 648.898V651.728L581.095 646.069L568.362 644.654L548.556 634.751L541.482 620.603V607.871L532.993 600.797L528.749 592.308L525.92 590.893L514.602 565.428L508.943 559.769V556.939L503.284 554.11L500.454 548.451L483.477 545.621L476.403 547.036L472.159 549.866L467.915 559.769L462.256 565.428H456.597L433.961 548.451L429.716 539.962V530.059L426.887 527.229V521.57L412.739 510.252L400.006 496.105L398.592 490.446L392.933 486.202V483.372H402.836L469.329 490.446L477.818 375.851H479.233Z" fill="white" stroke="#A4A4A4" stroke-opacity="0.95" stroke-width="0.517381" stroke-linecap="round" stroke-linejoin="round"/>
<path fill-rule="evenodd" clip-rule="evenodd" d="M373.126 249.936L443.864 258.425L504.698 262.669L499.039 364.531L409.91 357.457L358.979 350.384L373.126 254.18V249.936Z" fill="white" stroke="#A4A4A4" stroke-opacity="0.95" stroke-width="0.517381" stroke-linecap="round" stroke-linejoin="round"/>
<path fill-rule="evenodd" clip-rule="evenodd" d="M476.403 157.978L467.914 259.84L394.347 252.766L336.342 244.278L351.904 143.83L459.426 156.563L476.403 157.978Z" fill="white" stroke="#A4A4A4" stroke-opacity="0.95" stroke-width="0.517381" stroke-linecap="round" stroke-linejoin="round"/>
<path fill-rule="evenodd" clip-rule="evenodd" d="M285.41 29.2349L397.176 49.0415L455.181 56.1152L484.891 57.53L476.402 157.978L436.789 155.148L357.563 143.83H351.904L350.489 156.563L344.83 148.074L342 152.319L336.341 153.733L329.267 150.904H326.438V153.733L322.194 150.904L316.535 153.733L315.12 143.83L309.461 139.586L306.631 121.194L303.802 116.95L298.143 121.194L293.899 118.365V112.705L298.143 111.291L296.728 104.217L300.972 98.5579L302.387 91.4841H298.143L288.24 74.5071L282.58 68.848L283.995 61.7743L279.751 53.2857L282.58 40.5529L285.41 29.2349Z" fill="white" stroke="#A4A4A4" stroke-opacity="0.95" stroke-width="0.517381" stroke-linecap="round" stroke-linejoin="round"/>
<path fill-rule="evenodd" clip-rule="evenodd" d="M254.286 98.5585V90.07L269.849 24.9912L285.411 29.2355L279.752 53.2863L283.996 61.7749L282.581 68.8486L289.655 75.9224L293.899 82.9962L292.485 84.411L302.388 92.8995L296.729 107.047L298.144 111.291L293.899 112.706L295.314 119.78L296.729 121.195L303.803 116.95L306.632 119.78L309.462 139.586L315.121 143.831L316.535 152.319H342.001L344.831 148.075L350.49 156.564L340.586 218.813L281.167 208.91L230.235 197.591L240.139 152.319L244.383 145.245L240.139 136.757L250.042 126.854V124.024L259.945 111.291L255.701 99.9733L254.286 98.5585Z" fill="white" stroke="#A4A4A4" stroke-opacity="0.95" stroke-width="0.517381" stroke-linecap="round" stroke-linejoin="round"/>
<path fill-rule="evenodd" clip-rule="evenodd" d="M143.936 63.1887L145.35 67.4329H151.009L153.839 70.2625L152.424 81.5805L159.498 87.2395L173.645 85.8248L184.963 91.4838L218.918 90.069L255.701 99.9723L259.946 109.876L250.042 124.023V126.853L240.139 136.756V139.586L244.383 143.83L240.139 152.318L230.236 197.59L163.742 182.028L104.322 165.051L100.078 162.222V150.904L102.908 146.659L101.493 141L112.811 125.438L119.885 109.876L124.129 95.7281L132.618 78.751L135.447 61.7739L141.106 64.6034L142.521 63.1887H143.936Z" fill="white" stroke="#A4A4A4" stroke-opacity="0.95" stroke-width="0.517381" stroke-linecap="round" stroke-linejoin="round"/>
<path fill-rule="evenodd" clip-rule="evenodd" d="M151.009 402.73H153.839L156.668 406.975L155.254 408.389L151.009 402.73ZM148.18 412.634L152.424 419.708L146.765 414.049L148.18 412.634ZM129.788 402.73H132.618L129.788 404.145V402.73ZM136.862 382.924L138.277 384.339L128.373 382.924H135.447H136.862ZM118.47 378.68L125.544 382.924L124.129 384.339L117.055 378.68H118.47ZM101.493 163.637L176.475 184.858L158.083 257.011L179.305 292.38L240.139 381.509L238.724 385.753L241.554 389.998V397.071L245.798 399.901V402.73L235.895 409.804L234.48 418.293L228.821 423.952V431.026H231.651L233.065 433.855L230.236 438.099L175.06 432.44L176.475 431.026L173.646 428.196V412.634L162.327 398.486L156.668 395.657V389.998L151.009 387.168L149.595 388.583L136.862 374.435L119.885 368.776L117.055 364.532L119.885 350.385L115.641 346.14L117.055 341.896L111.396 334.822L107.152 319.26L102.908 315.016L104.322 307.942L108.567 303.698V299.453L104.322 298.039L100.078 292.38L101.493 276.817H104.322L102.908 281.061L107.152 283.891L104.322 272.573L108.567 269.743L107.152 266.914L104.322 268.329L102.908 275.402L95.834 266.914L94.4192 268.329L95.834 258.425L87.3454 241.448L91.5897 220.227L88.7602 208.909L85.9307 207.494V201.835L100.078 177.784V165.051L101.493 163.637Z" fill="white" stroke="#A4A4A4" stroke-opacity="0.95" stroke-width="0.517381" stroke-linecap="round" stroke-linejoin="round"/>
<path fill-rule="evenodd" clip-rule="evenodd" d="M176.475 184.858L214.673 194.761L285.411 208.909L257.116 354.629L252.872 358.873L247.213 353.214L242.968 354.629L240.139 380.094L218.918 351.799L158.083 258.425L176.475 187.687V184.858Z" fill="white" stroke="#A4A4A4" stroke-opacity="0.95" stroke-width="0.517381" stroke-linecap="round" stroke-linejoin="round"/>
<path fill-rule="evenodd" clip-rule="evenodd" d="M285.41 208.909L340.585 218.812L336.341 244.278L373.124 249.937L358.977 350.384L262.773 334.822V322.089L283.995 214.568L285.41 208.909Z" fill="white" stroke="#A4A4A4" stroke-opacity="0.95" stroke-width="0.517381" stroke-linecap="round" stroke-linejoin="round"/>
<path fill-rule="evenodd" clip-rule="evenodd" d="M472.158 208.909L574.021 214.568L581.095 220.227L595.242 218.812L605.145 223.056L612.219 230.13L615.049 240.033L617.878 241.448V251.351L620.708 254.181V261.255L623.537 266.914L622.122 272.573L626.367 283.891L633.441 292.379L503.283 288.135L504.698 262.669L467.914 259.84L470.744 218.812L472.158 208.909Z" fill="white" stroke="#A4A4A4" stroke-opacity="0.95" stroke-width="0.517381" stroke-linecap="round" stroke-linejoin="round"/>
<path fill-rule="evenodd" clip-rule="evenodd" d="M476.402 157.977L477.817 136.756L484.891 135.341L544.311 139.586L609.39 141V143.83L605.145 148.074L606.56 153.733L612.219 156.563V184.858L609.39 203.25L612.219 211.738L607.975 221.641L610.804 228.715L596.657 218.812L581.094 220.227L578.265 217.397L566.947 214.568L472.158 208.909L474.988 166.466L476.402 157.977Z" fill="white" stroke="#A4A4A4" stroke-opacity="0.95" stroke-width="0.517381" stroke-linecap="round" stroke-linejoin="round"/>
<path fill-rule="evenodd" clip-rule="evenodd" d="M484.891 57.5298L554.214 63.1888H599.486L600.901 87.2397L605.145 97.143V112.705L606.56 125.438L609.39 131.097V141L477.817 135.341L484.891 61.7741V57.5298Z" fill="white" stroke="#A4A4A4" stroke-opacity="0.95" stroke-width="0.517381" stroke-linecap="round" stroke-linejoin="round"/>
<path fill-rule="evenodd" clip-rule="evenodd" d="M599.487 63.1882L633.441 64.603V56.1145L637.686 54.6997L640.515 58.944L641.93 68.8473L644.759 71.6768L647.589 70.262L657.492 74.5063L656.078 75.921L671.64 71.6768L677.299 74.5063L675.884 75.921L680.128 77.3358L681.543 81.5801L687.202 78.7506L688.617 81.5801L697.105 85.8243L705.594 80.1653L709.838 84.4096H731.06L709.838 95.7276L688.617 116.949V119.778L684.373 121.193V136.756L674.469 145.244V148.074L678.714 152.318L677.299 169.295L680.128 173.539L692.861 179.198L699.935 187.687H702.764L707.009 199.005L690.032 201.834L610.805 203.249L612.22 157.977L605.146 149.488L609.391 143.829V131.097L606.561 125.438L605.146 97.1424L600.902 88.6539L599.487 64.603V63.1882Z" fill="white" stroke="#A4A4A4" stroke-opacity="0.95" stroke-width="0.517381" stroke-linecap="round" stroke-linejoin="round"/>
<path fill-rule="evenodd" clip-rule="evenodd" d="M91.5893 585.234L94.4188 589.478L90.1745 586.649L91.5893 585.234ZM57.6352 654.557L64.7089 653.142V655.972L70.368 658.801L57.6352 654.557ZM47.7319 654.557H56.2204L47.7319 655.972V654.557ZM42.0728 650.313L44.9024 653.142H42.0728V650.313ZM1.04492 620.603L5.28919 624.847L1.04492 622.018V620.603ZM274.093 620.603L281.167 626.262L282.581 631.921L278.337 633.336L272.678 627.677V624.847H269.849L272.678 619.188L274.093 620.603ZM269.849 613.529L274.093 616.359L268.434 624.847L265.604 616.359H268.434L267.019 614.944L269.849 613.529ZM259.945 605.041L267.019 609.285L264.19 614.944L259.945 605.041ZM259.945 609.285L262.775 612.114L265.604 622.018L252.871 610.7L254.286 606.455L259.945 609.285ZM169.401 626.262L180.719 614.944L179.304 616.359L182.134 619.188L177.889 620.603L180.719 626.262L179.304 624.847V627.677L172.23 631.921L167.986 627.677L169.401 626.262ZM167.986 634.751L172.23 633.336L169.401 634.751H167.986ZM141.106 646.069L143.935 643.239L145.35 644.654V647.483H141.106V646.069ZM114.225 595.137L118.47 593.723L121.299 599.382L114.225 596.552V595.137ZM108.566 650.313L109.981 651.728L107.152 654.557L100.078 655.972L105.737 650.313H108.566ZM134.032 541.377H138.276V547.036L148.18 545.621H143.935L142.521 538.547H139.691L136.861 531.473L129.788 524.4H132.617V521.57H141.106L146.765 511.667L156.668 506.008L160.912 507.422L165.157 503.178L167.986 506.008L166.571 507.422L169.401 504.593L172.23 507.422L175.06 506.008L180.719 511.667L190.622 510.252L199.111 513.082L204.77 510.252L213.258 513.082L228.821 593.723L231.65 595.137L237.309 592.308V595.137L247.212 602.211L252.871 593.723H255.701V596.552L265.604 602.211L278.337 614.944L288.24 616.359L291.07 626.262L288.24 629.092L285.411 626.262V629.092L275.508 619.188L274.093 620.603L272.678 619.188L275.508 616.359L269.849 613.529L264.19 605.041L258.531 603.626V606.455L257.116 605.041L250.042 607.87L241.553 602.211L234.48 600.796V597.967H204.77L200.526 603.626L193.452 602.211L182.134 610.7L184.963 605.041H182.134L183.548 595.137L190.622 593.723L187.793 590.893L182.134 593.723L179.304 602.211L172.23 609.285L176.475 613.529L172.23 616.359L170.816 620.603L160.912 626.262L159.498 630.506H155.253L151.009 634.751L152.424 636.165L145.35 640.41L143.935 638.995L135.447 641.824V638.995L132.617 643.239L134.032 644.654H125.543L126.958 647.483L121.299 646.069L118.47 648.898V643.239L125.543 644.654L132.617 637.58H139.691L143.935 631.921L149.594 630.506L155.253 623.432L158.083 613.529L153.839 614.944L151.009 612.114L149.594 616.359L146.765 610.7L136.861 613.529V600.796L135.447 599.382L131.202 602.211L126.958 599.382L124.129 595.137L125.543 593.723H122.714L125.543 592.308V589.478L121.299 585.234V582.405H124.129V579.575L131.202 571.087H134.032L135.447 573.916L139.691 569.672L138.276 568.257L141.106 571.087L146.765 568.257L143.935 561.183H146.765V558.354L138.276 562.598V559.768L136.861 561.183L125.543 558.354L124.129 552.695H126.958L121.299 547.036L132.617 542.791L134.032 541.377ZM91.5893 657.387L98.6631 651.728L100.078 653.142L91.5893 657.387ZM85.9303 655.972L90.1745 654.557L85.9303 657.387V655.972ZM102.907 562.598H108.566L114.225 568.257L109.981 569.672L107.152 564.013L102.907 562.598Z" fill="white"/>
<path d="M44.9024 653.142H47.7319M44.9024 653.142L42.0728 650.313V653.142H44.9024ZM37.8286 651.728L39.2433 653.142M34.9991 654.557L36.4138 653.142M30.7548 646.069L32.1696 644.654M25.0958 646.069L29.34 650.313M26.5105 643.239H25.0958M23.681 643.239V644.654M19.4367 640.41H22.2663M6.70395 626.262L8.1187 627.677M3.87443 627.677H2.45968M274.093 620.603L281.167 626.262L282.581 631.921L278.337 633.336L272.678 627.677V624.847H269.849L272.678 619.188M274.093 620.603L272.678 619.188M274.093 620.603L275.508 619.188L285.411 629.092V626.262L288.24 629.092L291.07 626.262L288.24 616.359L278.337 614.944L265.604 602.211L255.701 596.552V593.723H252.871L247.212 602.211L237.309 595.137V592.308L231.65 595.137L228.821 593.723L213.258 513.082L204.77 510.252L199.111 513.082L190.622 510.252L180.719 511.667L175.06 506.008L172.23 507.422L169.401 504.593L166.571 507.422L167.986 506.008L165.157 503.178L160.912 507.422L156.668 506.008L146.765 511.667L141.106 521.57H132.617V524.4H129.788L136.861 531.473L139.691 538.547H142.521L143.935 545.621H148.18L138.276 547.036V541.377H134.032L132.617 542.791L121.299 547.036L126.958 552.695H124.129L125.543 558.354L136.861 561.183L138.276 559.768V562.598L146.765 558.354V561.183H143.935L146.765 568.257L141.106 571.087L138.276 568.257L139.691 569.672L135.447 573.916L134.032 571.087H131.202L124.129 579.575V582.405H121.299V585.234L125.543 589.478V592.308L122.714 593.723H125.543L124.129 595.137L126.958 599.382L131.202 602.211L135.447 599.382L136.861 600.796V613.529L146.765 610.7L149.594 616.359L151.009 612.114L153.839 614.944L158.083 613.529L155.253 623.432L149.594 630.506L143.935 631.921L139.691 637.58H132.617L125.543 644.654M272.678 619.188L275.508 616.359L269.849 613.529M269.849 613.529L274.093 616.359L268.434 624.847L265.604 616.359H268.434L267.019 614.944L269.849 613.529ZM269.849 613.529L264.19 605.041L258.531 603.626V606.455L257.116 605.041L250.042 607.87L241.553 602.211L234.48 600.796V597.967H204.77L200.526 603.626L193.452 602.211L182.134 610.7L184.963 605.041H182.134L183.548 595.137L190.622 593.723L187.793 590.893L182.134 593.723L179.304 602.211L172.23 609.285L176.475 613.529L172.23 616.359L170.816 620.603L160.912 626.262L159.498 630.506H155.253L151.009 634.751L152.424 636.165L145.35 640.41L143.935 638.995L135.447 641.824V638.995L132.617 643.239L134.032 644.654H125.543M180.719 599.382L182.134 597.967M173.645 607.87L175.06 609.285M163.742 640.41L165.157 638.995M138.276 643.239H141.106M139.691 613.529L141.106 612.114M126.958 648.898L129.788 650.313M112.811 650.313L117.055 648.898M109.981 648.898H112.811M125.543 644.654L126.958 647.483L121.299 646.069L118.47 648.898V643.239L125.543 644.654ZM95.8336 623.432L97.2483 624.847M94.4188 617.773L95.8336 619.188M73.1975 657.387H71.7827M91.5893 585.234L94.4188 589.478L90.1745 586.649L91.5893 585.234ZM57.6352 654.557L64.7089 653.142V655.972L70.368 658.801L57.6352 654.557ZM47.7319 654.557H56.2204L47.7319 655.972V654.557ZM1.04492 620.603L5.28919 624.847L1.04492 622.018V620.603ZM259.945 605.041L267.019 609.285L264.19 614.944L259.945 605.041ZM259.945 609.285L262.775 612.114L265.604 622.018L252.871 610.7L254.286 606.455L259.945 609.285ZM169.401 626.262L180.719 614.944L179.304 616.359L182.134 619.188L177.889 620.603L180.719 626.262L179.304 624.847V627.677L172.23 631.921L167.986 627.677L169.401 626.262ZM167.986 634.751L172.23 633.336L169.401 634.751H167.986ZM141.106 646.069L143.935 643.239L145.35 644.654V647.483H141.106V646.069ZM114.225 595.137L118.47 593.723L121.299 599.382L114.225 596.552V595.137ZM108.566 650.313L109.981 651.728L107.152 654.557L100.078 655.972L105.737 650.313H108.566ZM91.5893 657.387L98.6631 651.728L100.078 653.142L91.5893 657.387ZM85.9303 655.972L90.1745 654.557L85.9303 657.387V655.972ZM102.907 562.598H108.566L114.225 568.257L109.981 569.672L107.152 564.013L102.907 562.598Z" stroke="#A4A4A4" stroke-opacity="0.95" stroke-width="0.517381" stroke-linecap="round" stroke-linejoin="round"/>
<path fill-rule="evenodd" clip-rule="evenodd" d="M985.715 282.476H989.959L987.13 285.305L985.715 283.89V282.476Z" fill="white" stroke="#A4A4A4" stroke-opacity="0.95" stroke-width="0.517381" stroke-linecap="round" stroke-linejoin="round"/>
<path fill-rule="evenodd" clip-rule="evenodd" d="M610.805 203.249L707.009 200.42L709.838 206.079L708.423 211.738L711.253 218.812L716.912 221.641L718.327 225.886L729.645 237.204L723.986 249.936L712.668 252.766L711.253 257.01L715.497 261.254V265.499L712.668 271.158L707.009 275.402L708.423 279.646L697.105 273.987L670.225 276.817H623.538V268.328L620.708 261.254L622.123 259.84L616.464 242.863L617.879 241.448L615.049 240.033L612.22 228.715L607.976 221.641L612.22 211.738L609.39 208.908V203.249H610.805Z" fill="white" stroke="#A4A4A4" stroke-opacity="0.95" stroke-width="0.517381" stroke-linecap="round" stroke-linejoin="round"/>
<path fill-rule="evenodd" clip-rule="evenodd" d="M660.32 469.224L722.57 467.809V474.883L725.399 480.542L723.984 481.957H726.814L728.229 484.786L723.984 487.616L725.399 490.445L718.325 498.934L719.74 500.348L716.911 503.178V511.667H714.081V517.326H755.109L753.694 524.399L760.768 537.132L753.694 542.791L757.938 545.621L762.183 539.962L767.842 537.132V547.035H765.012V549.865L760.768 552.694L763.598 556.939L772.086 561.183V566.842L769.257 565.427L766.427 568.257L763.598 561.183L755.109 559.768L745.206 566.842L735.302 568.257L731.058 564.012L723.984 562.598V559.768L715.496 551.28L709.837 554.109L714.081 555.524L711.252 558.353L707.007 555.524L699.933 556.939L682.956 551.28H673.053L667.394 554.109L664.565 551.28L670.224 544.206L668.809 532.888L673.053 524.399V515.911L667.394 508.837L668.809 507.422L665.979 506.007V500.348L661.735 496.104L660.32 473.468V469.224Z" fill="white" stroke="#A4A4A4" stroke-opacity="0.95" stroke-width="0.517381" stroke-linecap="round" stroke-linejoin="round"/>
<path fill-rule="evenodd" clip-rule="evenodd" d="M936.199 271.158L1005.52 257.011L1014.01 286.721H1026.74V295.209L1025.33 298.039L1014.01 302.283L1011.18 296.624L1012.6 295.209H1009.77V299.453L1004.11 293.794V286.721L1001.28 283.891L1002.69 279.647H999.863L1001.28 268.329L1004.11 265.499L995.619 273.988L998.448 276.817V289.55L1005.52 302.283L989.96 295.209L985.716 296.624L984.301 292.38L989.96 282.476H982.886L977.227 279.647V276.817L972.983 275.403L965.909 268.329H960.25L956.006 272.573L950.347 271.158L939.029 283.891L937.614 275.403L936.199 271.158Z" fill="white"/>
<path d="M1009.77 300.868L1011.18 302.283M936.199 271.158L1005.52 257.011L1014.01 286.721H1026.74V295.209L1025.33 298.039L1014.01 302.283L1011.18 296.624L1012.6 295.209H1009.77V299.453L1004.11 293.794V286.721L1001.28 283.891L1002.69 279.647H999.863L1001.28 268.329L1004.11 265.499L995.619 273.988L998.448 276.817V289.55L1005.52 302.283L989.96 295.209L985.716 296.624L984.301 292.38L989.96 282.476H982.886L977.227 279.647V276.817L972.983 275.403L965.909 268.329H960.25L956.006 272.573L950.347 271.158L939.029 283.891L937.614 275.403L936.199 271.158Z" stroke="#A4A4A4" stroke-opacity="0.95" stroke-width="0.517381" stroke-linecap="round" stroke-linejoin="round"/>
<path fill-rule="evenodd" clip-rule="evenodd" d="M920.637 207.494L934.784 191.932L929.125 186.273L927.71 180.614L937.614 176.369H956.006L968.738 172.125L974.397 165.051L978.642 163.637L975.812 157.978L971.568 156.563L974.397 153.733L972.983 149.489L982.886 133.927L994.204 122.609L1019.67 116.95L1022.5 126.853L1025.33 129.683L1023.91 139.586L1028.16 148.074L1026.74 149.489L1028.16 152.319H1030.99L1035.23 169.296V189.102L1038.06 207.494L1040.89 210.324L1036.65 214.568L1038.06 218.812L1039.48 220.227L1049.38 214.568L1056.45 213.153L1064.94 204.665V208.909H1070.6L1049.38 224.471L1030.99 231.545L1033.82 225.886V217.397L1011.18 210.324L1006.94 201.835L1001.28 199.006L926.296 214.568H920.637V211.738V207.494Z" fill="white"/>
<path d="M1066.36 203.25L1069.19 201.835M920.637 207.494L934.784 191.932L929.125 186.273L927.71 180.614L937.614 176.369H956.006L968.738 172.125L974.397 165.051L978.642 163.637L975.812 157.978L971.568 156.563L974.397 153.733L972.983 149.489L982.886 133.927L994.204 122.609L1019.67 116.95L1022.5 126.853L1025.33 129.683L1023.91 139.586L1028.16 148.074L1026.74 149.489L1028.16 152.319H1030.99L1035.23 169.296V189.102L1038.06 207.494L1040.89 210.324L1036.65 214.568L1038.06 218.812L1039.48 220.227L1049.38 214.568L1056.45 213.153L1064.94 204.665V208.909H1070.6L1049.38 224.471L1030.99 231.545L1033.82 225.886V217.397L1011.18 210.324L1006.94 201.835L1001.28 199.006L926.296 214.568H920.637V211.738V207.494Z" stroke="#A4A4A4" stroke-opacity="0.95" stroke-width="0.517381" stroke-linecap="round" stroke-linejoin="round"/>
<path fill-rule="evenodd" clip-rule="evenodd" d="M780.575 146.659L781.99 145.244L780.575 148.074V146.659ZM709.838 111.29L712.667 109.875L714.082 114.12L709.838 111.29ZM688.616 119.779L690.031 121.194L709.838 112.705V119.779L707.008 122.608L711.252 119.779L719.741 122.608L722.57 128.267L757.939 135.341L759.354 139.585L760.769 138.171L765.013 141L763.598 148.074L767.843 149.489L766.428 152.318L769.257 155.148V157.977L765.013 160.807L762.184 169.295L763.598 170.71L767.843 167.88L776.331 152.318L779.161 149.489L780.575 150.903L776.331 157.977L772.087 172.125L773.502 177.784L769.257 186.272L770.672 191.931L767.843 208.908L772.087 214.567V221.641L718.326 224.471L711.252 218.812L708.423 213.153L709.838 204.664L707.008 203.249L705.593 191.931L702.764 187.687H699.934L690.031 177.784H687.202L677.298 169.295L678.713 152.318L674.469 148.074V145.244L678.713 139.585L684.372 138.171V121.194L688.616 119.779Z" fill="white" stroke="#A4A4A4" stroke-opacity="0.95" stroke-width="0.517381" stroke-linecap="round" stroke-linejoin="round"/>
<path fill-rule="evenodd" clip-rule="evenodd" d="M779.16 412.633L832.921 408.389L847.068 460.735L855.557 476.297L852.727 479.126L851.313 487.615L854.142 491.859V501.763L856.972 506.007L849.898 508.836L800.381 513.081L807.455 527.228L801.796 532.887H797.552L794.722 527.228L796.137 524.399L793.308 521.569L790.478 531.472H787.649L783.404 521.569L780.575 498.933V414.048L779.16 412.633Z" fill="white" stroke="#A4A4A4" stroke-opacity="0.95" stroke-width="0.517381" stroke-linecap="round" stroke-linejoin="round"/>
<path fill-rule="evenodd" clip-rule="evenodd" d="M225.991 438.099L233.064 435.269L228.82 429.61V423.951L234.479 418.292L237.309 408.389L245.797 401.315L238.723 385.753L241.553 375.85V357.458L244.382 353.214H247.212L252.871 358.873L257.115 354.628L261.36 334.822L358.978 350.384L339.171 493.274L296.728 487.615L223.161 443.758L224.576 439.514L225.991 438.099Z" fill="white" stroke="#A4A4A4" stroke-opacity="0.95" stroke-width="0.517381" stroke-linecap="round" stroke-linejoin="round"/>
<path fill-rule="evenodd" clip-rule="evenodd" d="M503.283 288.135L632.026 292.379L637.685 295.209L639.1 293.794L641.929 296.623L636.27 303.697L646.174 313.6L647.588 367.361L592.413 368.776L499.039 364.532L503.283 292.379V288.135Z" fill="white" stroke="#A4A4A4" stroke-opacity="0.95" stroke-width="0.517381" stroke-linecap="round" stroke-linejoin="round"/>
<path fill-rule="evenodd" clip-rule="evenodd" d="M1057.87 98.5574L1062.11 99.9721L1060.7 95.7279L1064.94 94.3131L1062.11 92.8984L1067.77 81.5803L1064.94 71.677L1067.77 67.4327L1066.36 60.359L1074.84 37.7229H1077.67L1080.5 43.3819L1090.41 36.3081L1097.48 37.7229L1107.38 58.9442L1110.21 73.0918L1117.29 74.5065L1121.53 84.4098L1125.78 82.9951L1131.43 90.0688L1124.36 102.802L1122.95 101.387L1115.87 108.461L1114.46 107.046L1113.04 115.534L1104.55 119.779L1101.72 115.534V122.608H1098.9V125.438L1097.48 124.023L1088.99 132.512H1086.16L1079.09 146.659V152.318L1072.01 145.244L1059.28 107.046L1057.87 98.5574Z" fill="white"/>
<path d="M1104.55 122.608V124.023M1057.87 98.5574L1062.11 99.9721L1060.7 95.7279L1064.94 94.3131L1062.11 92.8984L1067.77 81.5803L1064.94 71.677L1067.77 67.4327L1066.36 60.359L1074.84 37.7229H1077.67L1080.5 43.3819L1090.41 36.3081L1097.48 37.7229L1107.38 58.9442L1110.21 73.0918L1117.29 74.5065L1121.53 84.4098L1125.78 82.9951L1131.43 90.0688L1124.36 102.802L1122.95 101.387L1115.87 108.461L1114.46 107.046L1113.04 115.534L1104.55 119.779L1101.72 115.534V122.608H1098.9V125.438L1097.48 124.023L1088.99 132.512H1086.16L1079.09 146.659V152.318L1072.01 145.244L1059.28 107.046L1057.87 98.5574Z" stroke="#A4A4A4" stroke-opacity="0.95" stroke-width="0.517381" stroke-linecap="round" stroke-linejoin="round"/>
<path fill-rule="evenodd" clip-rule="evenodd" d="M1035.23 190.517L1064.94 183.443L1070.6 197.59L1069.19 200.42L1050.79 207.494L1038.06 217.397L1036.65 214.568L1040.89 210.323L1038.06 207.494L1036.65 196.176L1035.23 190.517Z" fill="white" stroke="#A4A4A4" stroke-opacity="0.95" stroke-width="0.517381" stroke-linecap="round" stroke-linejoin="round"/>
<path fill-rule="evenodd" clip-rule="evenodd" d="M1012.59 254.18L1011.18 264.083L1015.42 266.913L1016.84 272.572L1025.33 279.646L1026.74 286.72H1014.01L1005.52 257.01L1011.18 254.18H1012.59Z" fill="white" stroke="#A4A4A4" stroke-opacity="0.95" stroke-width="0.517381" stroke-linecap="round" stroke-linejoin="round"/>
<path fill-rule="evenodd" clip-rule="evenodd" d="M405.664 634.751L409.909 630.506L408.494 623.432H411.323L424.056 629.092L431.13 637.58V640.41L435.374 641.824L426.886 648.898L424.056 647.483L414.153 657.387L408.494 653.142V644.654L404.25 636.165L405.664 634.751ZM390.102 606.455L391.517 603.626L407.079 610.7L397.176 614.944L395.761 610.7L390.102 607.87V606.455ZM381.614 606.455L387.273 609.285L383.028 612.114L381.614 607.87V606.455ZM381.614 599.382L388.687 600.796L387.273 603.626L375.955 602.211V599.382H381.614ZM367.466 596.552H356.148L351.904 590.893L358.978 586.649L361.807 593.723L367.466 596.552ZM316.535 578.16L320.779 573.916L327.853 575.331V580.99L325.023 582.405L316.535 578.16ZM305.217 583.819L309.461 579.575V582.405L306.632 583.819H305.217Z" fill="white"/>
<path d="M390.102 616.359H392.932M405.664 634.751L409.909 630.506L408.494 623.432H411.323L424.056 629.092L431.13 637.58V640.41L435.374 641.824L426.886 648.898L424.056 647.483L414.153 657.387L408.494 653.142V644.654L404.25 636.165L405.664 634.751ZM390.102 606.455L391.517 603.626L407.079 610.7L397.176 614.944L395.761 610.7L390.102 607.87V606.455ZM381.614 606.455L387.273 609.285L383.028 612.114L381.614 607.87V606.455ZM381.614 599.382L388.687 600.796L387.273 603.626L375.955 602.211V599.382H381.614ZM367.466 596.552H356.148L351.904 590.893L358.978 586.649L361.807 593.723L367.466 596.552ZM316.535 578.16L320.779 573.916L327.853 575.331V580.99L325.023 582.405L316.535 578.16ZM305.217 583.819L309.461 579.575V582.405L306.632 583.819H305.217Z" stroke="#A4A4A4" stroke-opacity="0.95" stroke-width="0.517381" stroke-linecap="round" stroke-linejoin="round"/>
<path fill-rule="evenodd" clip-rule="evenodd" d="M883.853 401.315L898 394.242L924.881 391.412V394.242L927.71 392.827L931.954 398.486L953.176 395.656L981.471 415.463L972.982 423.951L970.153 436.684L963.079 440.929L964.494 442.343L954.59 453.661L947.517 456.491V462.15H941.858L943.272 463.565L940.443 469.224L934.784 466.394L923.466 446.588L917.807 443.758L913.563 439.514V436.684L900.83 428.196L889.512 414.048L879.608 409.804V406.974L883.853 402.73V401.315Z" fill="white" stroke="#A4A4A4" stroke-opacity="0.95" stroke-width="0.517381" stroke-linecap="round" stroke-linejoin="round"/>
<path fill-rule="evenodd" clip-rule="evenodd" d="M1098.9 193.346L1103.14 190.517L1104.56 193.346L1100.31 194.761L1098.9 193.346ZM1087.58 194.761L1091.82 190.517L1094.65 193.346L1088.99 196.176L1087.58 194.761ZM1035.23 172.125L1062.11 166.466L1072.02 162.222L1076.26 157.978L1081.92 162.222L1083.33 160.807V163.637L1077.68 169.296L1079.09 173.54L1083.33 172.125L1091.82 183.443L1100.31 180.614L1096.07 174.955H1093.24L1097.48 173.54L1101.73 179.199L1103.14 186.273L1100.31 183.443L1086.16 194.761L1088.99 189.102L1087.58 187.687L1081.92 193.346L1073.43 182.028L1035.23 190.517V174.955V172.125Z" fill="white" stroke="#A4A4A4" stroke-opacity="0.95" stroke-width="0.517381" stroke-linecap="round" stroke-linejoin="round"/>
<path fill-rule="evenodd" clip-rule="evenodd" d="M820.189 129.683L824.434 133.927L818.775 131.097L820.189 129.683ZM801.797 136.756L807.456 133.927L804.627 139.586L801.797 136.756ZM794.724 153.734L796.138 150.904L798.968 152.319L794.724 155.148V153.734ZM854.143 231.545L835.752 235.789H813.116L791.894 238.619L798.968 225.886L800.383 211.739L791.894 191.932L793.309 184.858L790.479 179.199L793.309 176.37L794.724 163.637L797.553 157.978L801.797 155.148L804.627 149.489L806.042 153.734L808.871 152.319V146.66L815.945 143.83L811.701 141.001L814.53 135.342L813.116 133.927L817.36 132.512L821.604 135.342H827.263L844.24 143.83L845.655 146.66L842.825 149.489L847.07 155.148V166.466L844.24 173.54L838.581 177.784V184.858L841.411 183.443L844.24 186.273L847.07 177.784L855.558 172.125H858.388L862.632 179.199L868.291 197.591V207.494L865.461 210.324V206.08L862.632 207.494V213.153L858.388 217.398V223.057L854.143 231.545ZM735.304 87.24L748.037 78.7515L743.792 84.4105L735.304 88.6548V87.24ZM716.912 122.609L723.986 119.779L728.23 114.12H733.889L738.133 109.876H740.963L753.696 97.1433L760.77 95.7285L763.599 97.1433L757.94 98.5581L753.696 102.802L750.866 108.461L752.281 112.706L753.696 109.876H759.355L765.014 112.706L770.673 119.779H780.576L781.991 116.95L783.406 118.365L793.309 112.706H801.797L811.701 108.461V115.535L814.53 116.95L825.848 112.706L828.678 122.609H837.166L838.581 125.438L818.775 128.268V131.097L810.286 126.853H803.212L800.383 131.097L798.968 129.683L790.479 132.512L784.82 141.001V138.171L781.991 136.756L774.917 141.001L769.258 155.148L766.429 152.319L767.843 149.489L763.599 148.075L765.014 141.001L760.77 139.586L757.94 135.342L722.571 128.268L719.742 122.609H716.912Z" fill="white"/>
<path d="M818.775 131.097L824.434 133.927L820.189 129.683L818.775 131.097ZM818.775 131.097V128.268L838.581 125.438L837.166 122.609H828.678L825.848 112.706L814.53 116.95L811.701 115.535V108.461L801.797 112.706H793.309L783.406 118.365L781.991 116.95L780.576 119.779H770.673L765.014 112.706L759.355 109.876H753.696L752.281 112.706L750.866 108.461L753.696 102.802L757.94 98.5581L763.599 97.1433L760.77 95.7285L753.696 97.1433L740.963 109.876H738.133L733.889 114.12H728.23L723.986 119.779L716.912 122.609H719.742L722.571 128.268L757.94 135.342L760.77 139.586L765.014 141.001L763.599 148.075L767.843 149.489L766.429 152.319L769.258 155.148L774.917 141.001L781.991 136.756L784.82 138.171V141.001L790.479 132.512L798.968 129.683L800.383 131.097L803.212 126.853H810.286L818.775 131.097ZM801.797 136.756L807.456 133.927L804.627 139.586L801.797 136.756ZM794.724 153.734L796.138 150.904L798.968 152.319L794.724 155.148V153.734ZM854.143 231.545L835.752 235.789H813.116L791.894 238.619L798.968 225.886L800.383 211.739L791.894 191.932L793.309 184.858L790.479 179.199L793.309 176.37L794.724 163.637L797.553 157.978L801.797 155.148L804.627 149.489L806.042 153.734L808.871 152.319V146.66L815.945 143.83L811.701 141.001L814.53 135.342L813.116 133.927L817.36 132.512L821.604 135.342H827.263L844.24 143.83L845.655 146.66L842.825 149.489L847.07 155.148V166.466L844.24 173.54L838.581 177.784V184.858L841.411 183.443L844.24 186.273L847.07 177.784L855.558 172.125H858.388L862.632 179.199L868.291 197.591V207.494L865.461 210.324V206.08L862.632 207.494V213.153L858.388 217.398V223.057L854.143 231.545ZM735.304 87.24L748.037 78.7515L743.792 84.4105L735.304 88.6548V87.24Z" stroke="#A4A4A4" stroke-opacity="0.95" stroke-width="0.517381" stroke-linecap="round" stroke-linejoin="round"/>
<path fill-rule="evenodd" clip-rule="evenodd" d="M721.156 467.809L722.571 457.905L719.741 455.076V450.832H722.571V442.343H725.4L726.815 439.514H723.985L732.474 431.025L731.059 425.366L738.133 418.292L736.718 415.463L776.331 412.633L781.99 415.463L780.576 497.519L784.82 525.814L783.405 531.473L774.917 530.058L765.013 532.888L762.184 537.132L757.939 534.302L753.695 525.814L755.11 518.74L752.28 517.325L714.082 518.74L715.497 506.007L719.741 500.348L718.326 498.933L723.985 493.274V487.615H726.815L728.23 484.786L723.985 481.956L725.4 480.542L721.156 472.053L723.985 470.638L722.571 467.809H721.156Z" fill="white" stroke="#A4A4A4" stroke-opacity="0.95" stroke-width="0.517381" stroke-linecap="round" stroke-linejoin="round"/>
<path fill-rule="evenodd" clip-rule="evenodd" d="M1052.21 108.461V102.802L1057.87 99.9727L1069.19 138.171L1079.09 153.733L1070.6 163.637L1049.38 169.296L1046.55 163.637V143.83L1049.38 132.512L1047.96 128.268L1053.62 122.609L1052.21 109.876V108.461Z" fill="white" stroke="#A4A4A4" stroke-opacity="0.95" stroke-width="0.517381" stroke-linecap="round" stroke-linejoin="round"/>
<path fill-rule="evenodd" clip-rule="evenodd" d="M1012.6 254.181L1023.91 242.863L1014.01 232.96L1012.6 234.375L1014.01 225.886L1011.18 223.057L1015.42 218.812L1016.84 213.153L1033.82 217.398V225.886L1030.99 231.545L1036.65 234.375L1038.06 248.522L1035.23 259.84L1030.99 264.085L1029.57 271.158L1026.74 273.988L1025.33 266.914L1021.08 268.329L1011.18 259.84L1012.6 255.596V254.181Z" fill="white" stroke="#A4A4A4" stroke-opacity="0.95" stroke-width="0.517381" stroke-linecap="round" stroke-linejoin="round"/>
<path fill-rule="evenodd" clip-rule="evenodd" d="M358.977 350.384L409.909 357.458L477.817 363.117L479.232 375.849L469.328 490.445L392.932 483.371L394.346 487.615L358.977 484.786L357.563 496.104L339.171 493.274L358.977 353.213V350.384Z" fill="white" stroke="#A4A4A4" stroke-opacity="0.95" stroke-width="0.517381" stroke-linecap="round" stroke-linejoin="round"/>
<path fill-rule="evenodd" clip-rule="evenodd" d="M1074.84 203.249L1076.26 200.42V203.249H1074.84ZM1069.18 200.42L1066.36 183.443L1073.43 180.613L1081.92 193.346L1069.18 200.42Z" fill="white" stroke="#A4A4A4" stroke-opacity="0.95" stroke-width="0.517381" stroke-linecap="round" stroke-linejoin="round"/>
<path fill-rule="evenodd" clip-rule="evenodd" d="M907.903 217.397L920.636 207.494V214.568H926.295L1002.69 199.005L1004.11 201.835L1008.35 203.25L1011.18 210.323H1016.84L1015.42 218.812L1011.18 223.056L1014.01 225.886L1012.6 232.96L1023.91 242.863L1012.6 254.181L998.448 259.84L916.392 273.987L907.903 221.641V217.397Z" fill="white" stroke="#A4A4A4" stroke-opacity="0.95" stroke-width="0.517381" stroke-linecap="round" stroke-linejoin="round"/>
<path fill-rule="evenodd" clip-rule="evenodd" d="M1019.67 116.949L1049.38 108.46H1052.21L1053.62 111.29V122.608L1047.97 128.267L1049.38 132.511L1046.55 143.829L1049.38 167.88L1043.72 170.71L1035.23 172.124L1030.99 152.318L1026.74 150.903L1028.16 148.074L1023.91 141L1025.33 129.682L1022.5 126.852L1021.08 116.949H1019.67Z" fill="white" stroke="#A4A4A4" stroke-opacity="0.95" stroke-width="0.517381" stroke-linecap="round" stroke-linejoin="round"/>
<path fill-rule="evenodd" clip-rule="evenodd" d="M166.572 6.59848H173.646L170.816 15.087L166.572 9.42799V6.59848ZM269.849 24.9903L258.531 70.2625L254.287 97.1429L218.918 90.0691L192.038 91.4838L180.719 90.0691L173.646 85.8248L160.913 87.2396L152.424 81.5805L153.839 70.2625L151.01 67.433H145.351L143.936 63.1887L135.447 58.9444L138.277 51.8707H141.106L138.277 49.0412V13.6723L141.106 6.59848L149.595 15.087L169.401 22.1608L170.816 27.8198V20.746L175.06 12.2575L176.475 0.939453L209.015 10.8427L265.605 23.5755L269.849 24.9903Z" fill="white" stroke="#A4A4A4" stroke-opacity="0.95" stroke-width="0.517381" stroke-linecap="round" stroke-linejoin="round"/>
<path d="M536.053 330.581L524.143 312.483H547.964L536.053 330.581Z" fill="white"/>
<rect x="322.225" y="273.023" width="307.695" height="45.6952" rx="20.6952" fill="white"/>
<path d="M337.173 303.371L332.999 288.32H335.387L338.319 299.975H338.459L341.509 288.32H343.875L346.925 299.983H347.065L349.99 288.32H352.386L348.204 303.371H345.918L342.751 292.097H342.633L339.466 303.371H337.173ZM358.033 303.598C356.921 303.598 355.963 303.361 355.16 302.886C354.361 302.405 353.744 301.732 353.308 300.865C352.877 299.992 352.661 298.971 352.661 297.8C352.661 296.644 352.877 295.625 353.308 294.743C353.744 293.861 354.351 293.172 355.131 292.678C355.914 292.183 356.831 291.935 357.879 291.935C358.516 291.935 359.133 292.041 359.731 292.251C360.329 292.462 360.865 292.793 361.341 293.243C361.816 293.694 362.191 294.28 362.465 295C362.739 295.715 362.877 296.585 362.877 297.609V298.388H353.903V296.742H360.723C360.723 296.164 360.606 295.652 360.37 295.206C360.135 294.755 359.805 294.4 359.378 294.14C358.957 293.88 358.462 293.751 357.894 293.751C357.276 293.751 356.738 293.902 356.277 294.206C355.821 294.505 355.469 294.897 355.219 295.382C354.974 295.862 354.851 296.384 354.851 296.947V298.234C354.851 298.988 354.984 299.63 355.248 300.159C355.518 300.688 355.892 301.092 356.373 301.372C356.853 301.646 357.414 301.783 358.055 301.783C358.472 301.783 358.852 301.724 359.195 301.607C359.538 301.484 359.834 301.303 360.084 301.063C360.334 300.823 360.525 300.526 360.657 300.174L362.737 300.549C362.57 301.161 362.271 301.697 361.84 302.158C361.414 302.614 360.878 302.969 360.231 303.224C359.589 303.473 358.857 303.598 358.033 303.598ZM379.177 292.273C379.099 291.578 378.775 291.039 378.207 290.657C377.639 290.27 376.923 290.076 376.061 290.076C375.444 290.076 374.91 290.174 374.459 290.37C374.008 290.561 373.658 290.826 373.408 291.164C373.163 291.497 373.04 291.877 373.04 292.303C373.04 292.66 373.124 292.969 373.29 293.229C373.462 293.488 373.685 293.706 373.959 293.883C374.238 294.054 374.537 294.199 374.856 294.316C375.174 294.429 375.48 294.522 375.774 294.596L377.244 294.978C377.724 295.095 378.217 295.255 378.721 295.456C379.226 295.656 379.694 295.921 380.125 296.249C380.556 296.578 380.904 296.984 381.169 297.469C381.438 297.954 381.573 298.535 381.573 299.211C381.573 300.063 381.352 300.82 380.911 301.482C380.475 302.143 379.841 302.665 379.008 303.047C378.18 303.429 377.178 303.62 376.002 303.62C374.875 303.62 373.9 303.442 373.077 303.084C372.254 302.726 371.61 302.219 371.144 301.563C370.679 300.901 370.422 300.117 370.373 299.211H372.651C372.695 299.755 372.871 300.208 373.18 300.571C373.494 300.928 373.893 301.195 374.378 301.372C374.868 301.543 375.404 301.629 375.987 301.629C376.629 301.629 377.2 301.528 377.7 301.328C378.204 301.122 378.601 300.838 378.89 300.475C379.179 300.108 379.324 299.679 379.324 299.189C379.324 298.743 379.197 298.378 378.942 298.094C378.692 297.81 378.351 297.575 377.92 297.388C377.494 297.202 377.011 297.038 376.472 296.896L374.694 296.411C373.489 296.083 372.533 295.6 371.828 294.963C371.127 294.326 370.777 293.484 370.777 292.435C370.777 291.568 371.012 290.811 371.482 290.164C371.953 289.517 372.59 289.015 373.393 288.658C374.197 288.295 375.103 288.114 376.112 288.114C377.131 288.114 378.03 288.293 378.809 288.65C379.593 289.008 380.211 289.5 380.661 290.127C381.112 290.75 381.347 291.465 381.367 292.273H379.177ZM386.307 296.668V303.371H384.11V288.32H386.278V293.92H386.418C386.682 293.312 387.086 292.829 387.63 292.472C388.174 292.114 388.885 291.935 389.762 291.935C390.536 291.935 391.212 292.095 391.79 292.413C392.373 292.731 392.824 293.207 393.142 293.839C393.466 294.466 393.627 295.25 393.627 296.19V303.371H391.43V296.455C391.43 295.627 391.217 294.985 390.79 294.53C390.364 294.069 389.771 293.839 389.012 293.839C388.493 293.839 388.027 293.949 387.616 294.169C387.209 294.39 386.888 294.713 386.653 295.14C386.423 295.561 386.307 296.07 386.307 296.668ZM396.56 303.371V292.082H398.757V303.371H396.56ZM397.669 290.341C397.287 290.341 396.959 290.213 396.684 289.958C396.415 289.699 396.28 289.39 396.28 289.032C396.28 288.67 396.415 288.361 396.684 288.106C396.959 287.847 397.287 287.717 397.669 287.717C398.051 287.717 398.377 287.847 398.647 288.106C398.921 288.361 399.058 288.67 399.058 289.032C399.058 289.39 398.921 289.699 398.647 289.958C398.377 290.213 398.051 290.341 397.669 290.341ZM401.713 307.604V292.082H403.859V293.912H404.043C404.17 293.677 404.354 293.405 404.594 293.096C404.834 292.788 405.167 292.518 405.593 292.288C406.02 292.053 406.583 291.935 407.284 291.935C408.195 291.935 409.008 292.166 409.724 292.626C410.439 293.087 411 293.751 411.407 294.618C411.818 295.485 412.024 296.529 412.024 297.748C412.024 298.968 411.821 300.014 411.414 300.887C411.007 301.754 410.449 302.423 409.738 302.893C409.028 303.358 408.217 303.591 407.306 303.591C406.62 303.591 406.059 303.476 405.623 303.246C405.192 303.015 404.854 302.746 404.609 302.437C404.364 302.129 404.175 301.854 404.043 301.614H403.911V307.604H401.713ZM403.866 297.726C403.866 298.52 403.982 299.216 404.212 299.814C404.442 300.411 404.775 300.879 405.211 301.217C405.647 301.55 406.181 301.717 406.813 301.717C407.47 301.717 408.019 301.543 408.46 301.195C408.901 300.842 409.234 300.365 409.459 299.762C409.689 299.16 409.805 298.481 409.805 297.726C409.805 296.982 409.692 296.313 409.467 295.72C409.246 295.127 408.913 294.659 408.467 294.316C408.026 293.973 407.475 293.802 406.813 293.802C406.177 293.802 405.638 293.966 405.197 294.294C404.761 294.623 404.43 295.081 404.205 295.669C403.979 296.257 403.866 296.943 403.866 297.726ZM421.455 288.32L425.644 300.578H425.813L430.002 288.32H432.457L427.04 303.371H424.417L419 288.32H421.455ZM438.187 303.598C437.075 303.598 436.117 303.361 435.313 302.886C434.515 302.405 433.898 301.732 433.462 300.865C433.03 299.992 432.815 298.971 432.815 297.8C432.815 296.644 433.03 295.625 433.462 294.743C433.898 293.861 434.505 293.172 435.284 292.678C436.068 292.183 436.984 291.935 438.033 291.935C438.67 291.935 439.287 292.041 439.885 292.251C440.482 292.462 441.019 292.793 441.494 293.243C441.969 293.694 442.344 294.28 442.619 295C442.893 295.715 443.03 296.585 443.03 297.609V298.388H434.057V296.742H440.877C440.877 296.164 440.759 295.652 440.524 295.206C440.289 294.755 439.958 294.4 439.532 294.14C439.111 293.88 438.616 293.751 438.047 293.751C437.43 293.751 436.891 293.902 436.431 294.206C435.975 294.505 435.622 294.897 435.372 295.382C435.127 295.862 435.005 296.384 435.005 296.947V298.234C435.005 298.988 435.137 299.63 435.402 300.159C435.671 300.688 436.046 301.092 436.526 301.372C437.006 301.646 437.567 301.783 438.209 301.783C438.626 301.783 439.005 301.724 439.348 301.607C439.691 301.484 439.988 301.303 440.237 301.063C440.487 300.823 440.678 300.526 440.811 300.174L442.89 300.549C442.724 301.161 442.425 301.697 441.994 302.158C441.568 302.614 441.031 302.969 440.384 303.224C439.743 303.473 439.01 303.598 438.187 303.598ZM447.666 296.668V303.371H445.468V288.32H447.636V293.92H447.776C448.04 293.312 448.445 292.829 448.988 292.472C449.532 292.114 450.243 291.935 451.12 291.935C451.894 291.935 452.57 292.095 453.148 292.413C453.731 292.731 454.182 293.207 454.5 293.839C454.824 294.466 454.985 295.25 454.985 296.19V303.371H452.788V296.455C452.788 295.627 452.575 294.985 452.149 294.53C451.722 294.069 451.129 293.839 450.37 293.839C449.851 293.839 449.385 293.949 448.974 294.169C448.567 294.39 448.246 294.713 448.011 295.14C447.781 295.561 447.666 296.07 447.666 296.668ZM457.918 303.371V292.082H460.115V303.371H457.918ZM459.027 290.341C458.645 290.341 458.317 290.213 458.043 289.958C457.773 289.699 457.638 289.39 457.638 289.032C457.638 288.67 457.773 288.361 458.043 288.106C458.317 287.847 458.645 287.717 459.027 287.717C459.41 287.717 459.735 287.847 460.005 288.106C460.279 288.361 460.416 288.67 460.416 289.032C460.416 289.39 460.279 289.699 460.005 289.958C459.735 290.213 459.41 290.341 459.027 290.341ZM467.826 303.598C466.734 303.598 465.793 303.351 465.004 302.856C464.22 302.356 463.618 301.668 463.196 300.791C462.775 299.914 462.564 298.91 462.564 297.778C462.564 296.631 462.78 295.62 463.211 294.743C463.642 293.861 464.25 293.172 465.033 292.678C465.817 292.183 466.741 291.935 467.804 291.935C468.662 291.935 469.426 292.095 470.097 292.413C470.768 292.727 471.31 293.168 471.721 293.736C472.138 294.304 472.385 294.968 472.463 295.727H470.325C470.207 295.198 469.938 294.743 469.516 294.361C469.1 293.978 468.541 293.787 467.841 293.787C467.228 293.787 466.692 293.949 466.231 294.272C465.776 294.591 465.421 295.046 465.166 295.639C464.911 296.227 464.784 296.923 464.784 297.726C464.784 298.55 464.909 299.26 465.158 299.858C465.408 300.455 465.761 300.918 466.217 301.247C466.677 301.575 467.219 301.739 467.841 301.739C468.257 301.739 468.635 301.663 468.973 301.511C469.316 301.354 469.602 301.132 469.832 300.842C470.068 300.553 470.232 300.206 470.325 299.799H472.463C472.385 300.529 472.147 301.181 471.751 301.754C471.354 302.327 470.822 302.778 470.156 303.106C469.494 303.434 468.718 303.598 467.826 303.598ZM477.011 288.32V303.371H474.813V288.32H477.011ZM484.832 303.598C483.72 303.598 482.762 303.361 481.959 302.886C481.16 302.405 480.543 301.732 480.107 300.865C479.675 299.992 479.46 298.971 479.46 297.8C479.46 296.644 479.675 295.625 480.107 294.743C480.543 293.861 481.15 293.172 481.929 292.678C482.713 292.183 483.629 291.935 484.678 291.935C485.315 291.935 485.932 292.041 486.53 292.251C487.128 292.462 487.664 292.793 488.139 293.243C488.614 293.694 488.989 294.28 489.264 295C489.538 295.715 489.675 296.585 489.675 297.609V298.388H480.702V296.742H487.522C487.522 296.164 487.404 295.652 487.169 295.206C486.934 294.755 486.603 294.4 486.177 294.14C485.756 293.88 485.261 293.751 484.692 293.751C484.075 293.751 483.536 293.902 483.076 294.206C482.62 294.505 482.267 294.897 482.017 295.382C481.772 295.862 481.65 296.384 481.65 296.947V298.234C481.65 298.988 481.782 299.63 482.047 300.159C482.316 300.688 482.691 301.092 483.171 301.372C483.651 301.646 484.212 301.783 484.854 301.783C485.271 301.783 485.65 301.724 485.993 301.607C486.336 301.484 486.633 301.303 486.883 301.063C487.132 300.823 487.323 300.526 487.456 300.174L489.536 300.549C489.369 301.161 489.07 301.697 488.639 302.158C488.213 302.614 487.676 302.969 487.03 303.224C486.388 303.473 485.655 303.598 484.832 303.598ZM500.572 294.838L498.581 295.191C498.497 294.936 498.365 294.694 498.184 294.463C498.007 294.233 497.767 294.045 497.463 293.898C497.16 293.751 496.78 293.677 496.324 293.677C495.702 293.677 495.183 293.817 494.766 294.096C494.35 294.37 494.142 294.726 494.142 295.162C494.142 295.539 494.281 295.843 494.561 296.073C494.84 296.303 495.291 296.492 495.913 296.639L497.706 297.05C498.745 297.29 499.519 297.66 500.028 298.16C500.538 298.66 500.793 299.309 500.793 300.108C500.793 300.784 500.597 301.386 500.205 301.915C499.818 302.44 499.276 302.851 498.581 303.15C497.89 303.449 497.089 303.598 496.177 303.598C494.913 303.598 493.882 303.329 493.083 302.79C492.285 302.246 491.795 301.475 491.614 300.475L493.737 300.152C493.87 300.705 494.142 301.124 494.553 301.408C494.965 301.688 495.501 301.827 496.163 301.827C496.883 301.827 497.459 301.678 497.89 301.379C498.321 301.075 498.536 300.705 498.536 300.269C498.536 299.917 498.404 299.62 498.14 299.38C497.88 299.14 497.481 298.959 496.942 298.836L495.031 298.417C493.978 298.177 493.199 297.795 492.694 297.271C492.194 296.747 491.944 296.083 491.944 295.279C491.944 294.613 492.13 294.03 492.503 293.53C492.875 293.03 493.39 292.641 494.046 292.362C494.703 292.077 495.455 291.935 496.302 291.935C497.522 291.935 498.483 292.2 499.183 292.729C499.884 293.253 500.347 293.956 500.572 294.838ZM521.01 288.32V303.371H518.923L511.273 292.332H511.133V303.371H508.862V288.32H510.964L518.622 299.373H518.761V288.32H521.01ZM527.432 303.62C526.716 303.62 526.069 303.488 525.491 303.224C524.913 302.954 524.455 302.565 524.117 302.055C523.784 301.546 523.617 300.921 523.617 300.181C523.617 299.544 523.74 299.02 523.985 298.608C524.23 298.197 524.56 297.871 524.977 297.631C525.393 297.391 525.859 297.21 526.373 297.087C526.888 296.965 527.412 296.872 527.946 296.808C528.622 296.729 529.171 296.666 529.592 296.617C530.014 296.563 530.32 296.477 530.511 296.36C530.702 296.242 530.797 296.051 530.797 295.786V295.735C530.797 295.093 530.616 294.596 530.254 294.243C529.896 293.89 529.362 293.714 528.651 293.714C527.912 293.714 527.329 293.878 526.902 294.206C526.481 294.53 526.189 294.89 526.028 295.287L523.963 294.816C524.208 294.13 524.565 293.577 525.036 293.155C525.511 292.729 526.057 292.42 526.675 292.229C527.292 292.033 527.941 291.935 528.622 291.935C529.073 291.935 529.551 291.989 530.055 292.097C530.565 292.2 531.04 292.391 531.481 292.67C531.927 292.949 532.292 293.349 532.576 293.868C532.86 294.383 533.002 295.051 533.002 295.874V303.371H530.856V301.827H530.768C530.626 302.111 530.413 302.391 530.129 302.665C529.844 302.939 529.479 303.167 529.034 303.349C528.588 303.53 528.054 303.62 527.432 303.62ZM527.909 301.857C528.517 301.857 529.036 301.737 529.467 301.497C529.903 301.256 530.234 300.943 530.459 300.556C530.69 300.164 530.805 299.745 530.805 299.299V297.844C530.726 297.922 530.574 297.996 530.349 298.065C530.129 298.128 529.876 298.185 529.592 298.234C529.308 298.278 529.031 298.319 528.762 298.358C528.492 298.393 528.267 298.422 528.086 298.447C527.659 298.501 527.27 298.591 526.917 298.719C526.569 298.846 526.29 299.03 526.079 299.27C525.873 299.505 525.771 299.819 525.771 300.21C525.771 300.754 525.971 301.166 526.373 301.445C526.775 301.719 527.287 301.857 527.909 301.857ZM541.198 292.082V293.846H535.032V292.082H541.198ZM536.686 289.378H538.883V300.056C538.883 300.482 538.947 300.803 539.074 301.019C539.202 301.23 539.366 301.374 539.567 301.452C539.773 301.526 539.996 301.563 540.236 301.563C540.412 301.563 540.566 301.55 540.699 301.526C540.831 301.501 540.934 301.482 541.007 301.467L541.404 303.282C541.277 303.331 541.095 303.38 540.86 303.429C540.625 303.483 540.331 303.513 539.978 303.518C539.4 303.527 538.861 303.424 538.362 303.209C537.862 302.993 537.458 302.66 537.149 302.209C536.84 301.759 536.686 301.193 536.686 300.512V289.378ZM543.629 303.371V292.082H545.826V303.371H543.629ZM544.739 290.341C544.357 290.341 544.028 290.213 543.754 289.958C543.485 289.699 543.35 289.39 543.35 289.032C543.35 288.67 543.485 288.361 543.754 288.106C544.028 287.847 544.357 287.717 544.739 287.717C545.121 287.717 545.447 287.847 545.716 288.106C545.991 288.361 546.128 288.67 546.128 289.032C546.128 289.39 545.991 289.699 545.716 289.958C545.447 290.213 545.121 290.341 544.739 290.341ZM553.538 303.598C552.479 303.598 551.556 303.356 550.767 302.871C549.978 302.386 549.366 301.707 548.93 300.835C548.494 299.963 548.276 298.944 548.276 297.778C548.276 296.607 548.494 295.583 548.93 294.706C549.366 293.829 549.978 293.148 550.767 292.663C551.556 292.178 552.479 291.935 553.538 291.935C554.596 291.935 555.519 292.178 556.308 292.663C557.097 293.148 557.709 293.829 558.145 294.706C558.582 295.583 558.8 296.607 558.8 297.778C558.8 298.944 558.582 299.963 558.145 300.835C557.709 301.707 557.097 302.386 556.308 302.871C555.519 303.356 554.596 303.598 553.538 303.598ZM553.545 301.754C554.231 301.754 554.799 301.573 555.25 301.21C555.701 300.847 556.034 300.365 556.249 299.762C556.47 299.16 556.58 298.496 556.58 297.771C556.58 297.05 556.47 296.389 556.249 295.786C556.034 295.179 555.701 294.691 555.25 294.324C554.799 293.956 554.231 293.773 553.545 293.773C552.854 293.773 552.281 293.956 551.825 294.324C551.374 294.691 551.039 295.179 550.818 295.786C550.603 296.389 550.495 297.05 550.495 297.771C550.495 298.496 550.603 299.16 550.818 299.762C551.039 300.365 551.374 300.847 551.825 301.21C552.281 301.573 552.854 301.754 553.545 301.754ZM563.45 296.668V303.371H561.252V292.082H563.362V293.92H563.501C563.761 293.322 564.167 292.842 564.721 292.479C565.28 292.117 565.983 291.935 566.83 291.935C567.6 291.935 568.273 292.097 568.851 292.42C569.429 292.739 569.878 293.214 570.196 293.846C570.515 294.478 570.674 295.26 570.674 296.19V303.371H568.477V296.455C568.477 295.637 568.263 294.997 567.837 294.537C567.411 294.071 566.825 293.839 566.081 293.839C565.571 293.839 565.118 293.949 564.721 294.169C564.329 294.39 564.018 294.713 563.788 295.14C563.562 295.561 563.45 296.07 563.45 296.668ZM576.068 303.371L572.746 292.082H575.017L577.229 300.372H577.34L579.559 292.082H581.83L584.035 300.335H584.145L586.342 292.082H588.613L585.299 303.371H583.057L580.764 295.22H580.595L578.302 303.371H576.068ZM590.699 303.371V292.082H592.896V303.371H590.699ZM591.808 290.341C591.426 290.341 591.098 290.213 590.824 289.958C590.554 289.699 590.419 289.39 590.419 289.032C590.419 288.67 590.554 288.361 590.824 288.106C591.098 287.847 591.426 287.717 591.808 287.717C592.19 287.717 592.516 287.847 592.786 288.106C593.06 288.361 593.197 288.67 593.197 289.032C593.197 289.39 593.06 289.699 592.786 289.958C592.516 290.213 592.19 290.341 591.808 290.341ZM600.078 303.591C599.167 303.591 598.353 303.358 597.638 302.893C596.928 302.423 596.369 301.754 595.962 300.887C595.561 300.014 595.36 298.968 595.36 297.748C595.36 296.529 595.563 295.485 595.97 294.618C596.381 293.751 596.945 293.087 597.66 292.626C598.375 292.166 599.186 291.935 600.093 291.935C600.793 291.935 601.357 292.053 601.783 292.288C602.214 292.518 602.547 292.788 602.782 293.096C603.023 293.405 603.209 293.677 603.341 293.912H603.473V288.32H605.671V303.371H603.525V301.614H603.341C603.209 301.854 603.018 302.129 602.768 302.437C602.523 302.746 602.185 303.015 601.754 303.246C601.322 303.476 600.764 303.591 600.078 303.591ZM600.563 301.717C601.195 301.717 601.729 301.55 602.165 301.217C602.606 300.879 602.939 300.411 603.165 299.814C603.395 299.216 603.51 298.52 603.51 297.726C603.51 296.943 603.397 296.257 603.172 295.669C602.947 295.081 602.616 294.623 602.18 294.294C601.744 293.966 601.205 293.802 600.563 293.802C599.902 293.802 599.35 293.973 598.909 294.316C598.468 294.659 598.135 295.127 597.91 295.72C597.689 296.313 597.579 296.982 597.579 297.726C597.579 298.481 597.692 299.16 597.917 299.762C598.143 300.365 598.476 300.842 598.917 301.195C599.363 301.543 599.911 301.717 600.563 301.717ZM613.672 303.598C612.56 303.598 611.602 303.361 610.799 302.886C610 302.405 609.383 301.732 608.947 300.865C608.515 299.992 608.3 298.971 608.3 297.8C608.3 296.644 608.515 295.625 608.947 294.743C609.383 293.861 609.99 293.172 610.769 292.678C611.553 292.183 612.469 291.935 613.518 291.935C614.155 291.935 614.772 292.041 615.37 292.251C615.967 292.462 616.504 292.793 616.979 293.243C617.454 293.694 617.829 294.28 618.104 295C618.378 295.715 618.515 296.585 618.515 297.609V298.388H609.542V296.742H616.362C616.362 296.164 616.244 295.652 616.009 295.206C615.774 294.755 615.443 294.4 615.017 294.14C614.596 293.88 614.101 293.751 613.532 293.751C612.915 293.751 612.376 293.902 611.916 294.206C611.46 294.505 611.107 294.897 610.857 295.382C610.612 295.862 610.49 296.384 610.49 296.947V298.234C610.49 298.988 610.622 299.63 610.887 300.159C611.156 300.688 611.531 301.092 612.011 301.372C612.491 301.646 613.052 301.783 613.694 301.783C614.111 301.783 614.49 301.724 614.833 301.607C615.176 301.484 615.473 301.303 615.722 301.063C615.972 300.823 616.163 300.526 616.296 300.174L618.375 300.549C618.209 301.161 617.91 301.697 617.479 302.158C617.053 302.614 616.516 302.969 615.869 303.224C615.228 303.473 614.495 303.598 613.672 303.598Z" fill="black"/>
</svg>
