<svg width="66" height="61" viewBox="0 0 66 61" fill="none" xmlns="http://www.w3.org/2000/svg">
<path d="M3.17571 0.859863C2.33346 0.859863 1.52571 1.19445 0.930144 1.79001C0.334583 2.38557 0 3.19332 0 4.03557V25.207C0 25.4877 0.111528 25.757 0.310048 25.9555C0.508569 26.154 0.77782 26.2656 1.05857 26.2656H8.46856V0.859863H3.17571Z" fill="#D0DBF7"/>
<path d="M1.15388 1.59033C0.79119 1.88592 0.499295 2.25897 0.29963 2.68212C0.0999643 3.10526 -0.00240309 3.56775 4.28201e-05 4.03563V25.207C0.000852756 25.4875 0.112641 25.7563 0.310986 25.9547C0.509331 26.153 0.778112 26.2648 1.05861 26.2656H8.46861V25.8104C4.98778 18.0894 2.5288 9.94737 1.15388 1.59033Z" fill="#8EA6CE"/>
<path d="M43.4015 0.859863H3.17578C4.01803 0.859863 4.82579 1.19445 5.42135 1.79001C6.01691 2.38557 6.35149 3.19332 6.35149 4.03557V54.847C6.35149 56.2507 6.90913 57.597 7.90173 58.5896C8.89434 59.5822 10.2406 60.1398 11.6443 60.1398H17.9958V53.7884H46.5772V4.03557C46.5772 3.19332 46.2426 2.38557 45.647 1.79001C45.0515 1.19445 44.2437 0.859863 43.4015 0.859863Z" fill="#E6ECFF"/>
<path d="M6.35156 20.7925V54.8467C6.35207 56.2503 6.90987 57.5963 7.90236 58.5887C8.89485 59.5812 10.2408 60.139 11.6444 60.1395H17.9958V53.7881H33.6203C19.3085 46.1876 11.0728 33.0613 6.35156 20.7925Z" fill="#B7C6E2"/>
<path d="M44.4599 16.7383H38.9871C38.8332 16.7383 38.6812 16.7719 38.5416 16.8367C38.4019 16.9015 38.2781 16.996 38.1788 17.1135C38.0794 17.2311 38.0069 17.3689 37.9663 17.5174C37.9256 17.6658 37.9179 17.8213 37.9435 17.9731C38.1634 19.2577 38.1634 20.5703 37.9435 21.8549C37.9179 22.0066 37.9256 22.1622 37.9663 22.3106C38.0069 22.4591 38.0794 22.5969 38.1788 22.7144C38.2781 22.832 38.4019 22.9265 38.5416 22.9913C38.6812 23.0561 38.8332 23.0897 38.9871 23.0897H44.4599C44.7407 23.0897 45.0099 22.9782 45.2085 22.7797C45.407 22.5811 45.5185 22.3119 45.5185 22.0311V17.7969C45.5185 17.5161 45.407 17.2468 45.2085 17.0483C45.0099 16.8498 44.7407 16.7383 44.4599 16.7383Z" fill="#376CFB"/>
<path d="M60.3385 14.6211H44.4599C44.1792 14.6211 43.9099 14.7326 43.7114 14.9311C43.5129 15.1297 43.4014 15.3989 43.4014 15.6797V24.1482C43.4014 24.429 43.5129 24.6982 43.7114 24.8968C43.9099 25.0953 44.1792 25.2068 44.4599 25.2068H60.3385C61.7422 25.2068 63.0885 24.6492 64.0811 23.6566C65.0737 22.664 65.6313 21.3177 65.6313 19.9139C65.6313 18.5102 65.0737 17.1639 64.0811 16.1713C63.0885 15.1787 61.7422 14.6211 60.3385 14.6211Z" fill="#4294FF"/>
<path d="M40.2259 38.9682H12.7031C12.4224 38.9682 12.1531 38.8567 11.9546 38.6582C11.7561 38.4596 11.6445 38.1904 11.6445 37.9096C11.6445 37.6289 11.7561 37.3596 11.9546 37.1611C12.1531 36.9626 12.4224 36.8511 12.7031 36.8511H40.2259C40.5067 36.8511 40.7759 36.9626 40.9745 37.1611C41.173 37.3596 41.2845 37.6289 41.2845 37.9096C41.2845 38.1904 41.173 38.4596 40.9745 38.6582C40.7759 38.8567 40.5067 38.9682 40.2259 38.9682Z" fill="#4294FF"/>
<path d="M31.7574 43.2026H12.7031C12.4224 43.2026 12.1531 43.0911 11.9546 42.8925C11.7561 42.694 11.6445 42.4248 11.6445 42.144C11.6445 41.8633 11.7561 41.594 11.9546 41.3955C12.1531 41.197 12.4224 41.0854 12.7031 41.0854H31.7574C32.0381 41.0854 32.3074 41.197 32.5059 41.3955C32.7044 41.594 32.8159 41.8633 32.8159 42.144C32.8159 42.4248 32.7044 42.694 32.5059 42.8925C32.3074 43.0911 32.0381 43.2026 31.7574 43.2026Z" fill="#4294FF"/>
<path d="M25.4059 47.437H12.7031C12.4224 47.437 12.1531 47.3254 11.9546 47.1269C11.7561 46.9284 11.6445 46.6591 11.6445 46.3784C11.6445 46.0976 11.7561 45.8284 11.9546 45.6299C12.1531 45.4314 12.4224 45.3198 12.7031 45.3198H25.4059C25.6867 45.3198 25.956 45.4314 26.1545 45.6299C26.353 45.8284 26.4645 46.0976 26.4645 46.3784C26.4645 46.6591 26.353 46.9284 26.1545 47.1269C25.956 47.3254 25.6867 47.437 25.4059 47.437Z" fill="#4294FF"/>
<path d="M16.9374 52.7295V54.8466C16.9374 56.2504 16.3797 57.5966 15.3871 58.5892C14.3945 59.5818 13.0483 60.1395 11.6445 60.1395H51.8702C53.274 60.1395 54.6202 59.5818 55.6128 58.5892C56.6054 57.5966 57.1631 56.2504 57.1631 54.8466V52.7295H16.9374Z" fill="#D0DBF7"/>
<path d="M26.4645 33.6757C34.0648 33.6757 40.226 27.5145 40.226 19.9142C40.226 12.314 34.0648 6.15283 26.4645 6.15283C18.8643 6.15283 12.7031 12.314 12.7031 19.9142C12.7031 27.5145 18.8643 33.6757 26.4645 33.6757Z" fill="#4294FF"/>
<path d="M16.9375 20.9727C16.6567 20.9727 16.3875 20.8612 16.189 20.6627C15.9904 20.4642 15.8789 20.1949 15.8789 19.9142C15.8911 17.518 16.7103 15.1957 18.2043 13.3222C19.6983 11.4487 21.7799 10.1332 24.1133 9.58793C24.3846 9.53238 24.6668 9.58533 24.8995 9.7354C25.1321 9.88548 25.2968 10.1208 25.358 10.3908C25.4193 10.6608 25.3723 10.9441 25.2272 11.1799C25.082 11.4157 24.8503 11.5852 24.5816 11.6521C22.7151 12.0887 21.05 13.1414 19.8552 14.6404C18.6603 16.1394 18.0054 17.9973 17.996 19.9142C17.996 20.1949 17.8845 20.4642 17.686 20.6627C17.4875 20.8612 17.2182 20.9727 16.9375 20.9727Z" fill="#376CFB"/>
<path d="M28.5809 18.8554C28.8617 18.8554 29.1309 18.7438 29.3295 18.5453C29.528 18.3468 29.6395 18.0775 29.6395 17.7968V17.6422C29.6373 17.0013 29.4308 16.3777 29.0501 15.862C28.6694 15.3464 28.1343 14.9654 27.5224 14.7746V14.6211C27.5224 14.3403 27.4108 14.0711 27.2123 13.8725C27.0138 13.674 26.7445 13.5625 26.4638 13.5625C26.183 13.5625 25.9138 13.674 25.7153 13.8725C25.5168 14.0711 25.4052 14.3403 25.4052 14.6211V14.7746C24.8311 14.953 24.3235 15.2992 23.9479 15.7687C23.5723 16.2381 23.3459 16.8093 23.2978 17.4085C23.2497 18.0078 23.3821 18.6078 23.678 19.1312C23.9739 19.6545 24.4198 20.0773 24.9581 20.345L27.0223 21.3761C27.2046 21.4671 27.3509 21.617 27.4374 21.8016C27.5238 21.9861 27.5455 22.1944 27.4987 22.3928C27.4519 22.5912 27.3395 22.7679 27.1798 22.8944C27.02 23.0209 26.8221 23.0897 26.6183 23.0896H26.3092C26.0696 23.0893 25.8398 22.9939 25.6704 22.8245C25.5009 22.655 25.4056 22.4253 25.4052 22.1856V22.0311C25.4052 21.7503 25.2937 21.4811 25.0952 21.2825C24.8967 21.084 24.6274 20.9725 24.3467 20.9725C24.0659 20.9725 23.7967 21.084 23.5981 21.2825C23.3996 21.4811 23.2881 21.7503 23.2881 22.0311V22.1856C23.2903 22.8266 23.4968 23.4502 23.8775 23.9658C24.2582 24.4815 24.7933 24.8624 25.4052 25.0533V25.2068C25.4052 25.4875 25.5168 25.7568 25.7153 25.9553C25.9138 26.1538 26.183 26.2653 26.4638 26.2653C26.7445 26.2653 27.0138 26.1538 27.2123 25.9553C27.4108 25.7568 27.5224 25.4875 27.5224 25.2068V25.0533C28.0965 24.8749 28.6041 24.5286 28.9797 24.0592C29.3553 23.5897 29.5817 23.0186 29.6298 22.4193C29.6779 21.82 29.5455 21.22 29.2496 20.6967C28.9537 20.1733 28.5078 19.7506 27.9695 19.4829L25.9053 18.4517C25.723 18.3607 25.5767 18.2108 25.4902 18.0263C25.4037 17.8417 25.3821 17.6334 25.4289 17.435C25.4757 17.2367 25.588 17.0599 25.7478 16.9335C25.9076 16.807 26.1055 16.7382 26.3092 16.7382H26.6183C26.858 16.7385 27.0878 16.8339 27.2572 17.0034C27.4267 17.1728 27.522 17.4026 27.5224 17.6422V17.7968C27.5224 18.0775 27.6339 18.3468 27.8324 18.5453C28.0309 18.7438 28.3002 18.8554 28.5809 18.8554Z" fill="#376CFB"/>
<path d="M24.305 47.437H12.7031C12.4224 47.437 12.1531 47.3254 11.9546 47.1269C11.7561 46.9284 11.6445 46.6591 11.6445 46.3784C11.6445 46.0976 11.7561 45.8284 11.9546 45.6299C12.1531 45.4314 12.4224 45.3198 12.7031 45.3198H21.9868C22.7278 46.0397 23.5005 46.7489 24.305 47.437Z" fill="#2965ED"/>
<path d="M19.912 43.2026H12.7031C12.4224 43.2026 12.1531 43.0911 11.9546 42.8925C11.7561 42.694 11.6445 42.4248 11.6445 42.144C11.6445 41.8633 11.7561 41.594 11.9546 41.3955C12.1531 41.197 12.4224 41.0854 12.7031 41.0854H18.0277C18.6311 41.8053 19.2557 42.5039 19.912 43.2026Z" fill="#2965ED"/>
<path d="M16.334 38.9682H12.7031C12.4224 38.9682 12.1531 38.8567 11.9546 38.6582C11.7561 38.4596 11.6445 38.1904 11.6445 37.9096C11.6445 37.6289 11.7561 37.3596 11.9546 37.1611C12.1531 36.9626 12.4224 36.8511 12.7031 36.8511H14.7779C15.2754 37.5603 15.7941 38.2696 16.334 38.9682Z" fill="#2965ED"/>
<path d="M31.7256 52.7295H16.9374V54.8466C16.9395 55.5423 16.8041 56.2315 16.5388 56.8746C16.2736 57.5177 15.8838 58.1021 15.3919 58.594C14.9 59.0859 14.3156 59.4757 13.6725 59.7409C13.0294 60.0062 12.3402 60.1416 11.6445 60.1395H51.8702C52.4953 60.14 53.1155 60.0289 53.7015 59.8113C45.9563 59.0386 38.4647 56.6243 31.7256 52.7295Z" fill="#8EA6CE"/>
</svg>
