<svg width="63" height="47" viewBox="0 0 63 47" fill="none" xmlns="http://www.w3.org/2000/svg">
<path d="M58.1716 10.0859H4.34478C2.2263 10.0859 0.5 11.5916 0.5 13.4392V43.619C0.5 45.47 2.2263 46.9723 4.34478 46.9723H58.1716C60.294 46.9723 62.0164 45.47 62.0164 43.619V13.4392C62.0164 11.5916 60.294 10.0859 58.1716 10.0859Z" fill="#2196F3"/>
<path d="M62.0164 16.7925H0.5V26.8524H62.0164V16.7925Z" fill="#455A64"/>
<path d="M17.8014 36.9124H10.1118C9.05068 36.9124 8.18945 36.1612 8.18945 35.2357C8.18945 34.3102 9.05068 33.5591 10.1118 33.5591H17.8014C18.8625 33.5591 19.7238 34.3102 19.7238 35.2357C19.7238 36.1612 18.8625 36.9124 17.8014 36.9124Z" fill="#FAFAFA"/>
<path d="M62.0161 26.6714V13.4392C62.0161 11.5916 60.2936 10.0859 58.1713 10.0859H27.4131V13.4392C27.4131 23.9418 31.9961 30.3365 43.7764 36.2518C44.6454 36.6843 45.6373 36.9124 46.637 36.9124C47.6366 36.9124 48.6286 36.6843 49.509 36.245C55.3377 33.3243 59.3978 30.2762 62.0161 26.6714Z" fill="#FAFAFA"/>
<path d="M60.852 5.19359L47.3953 0.163641C46.907 -0.0174376 46.3649 -0.0174376 45.8766 0.163641L32.4199 5.19359C31.7163 5.45515 31.2588 6.0621 31.2588 6.73276V13.4394C31.2588 22.6643 35.1689 28.0564 45.6805 33.3379C45.9766 33.4854 46.3072 33.5592 46.6379 33.5592C46.9685 33.5592 47.2992 33.4854 47.5952 33.3379C58.1069 28.0698 62.017 22.6777 62.017 13.4394V6.73276C62.017 6.0621 61.5595 5.45515 60.852 5.19359Z" fill="#009688"/>
<path d="M44.716 21.8229C44.6891 21.8229 44.6584 21.8229 44.6353 21.8229C44.024 21.7994 43.4588 21.5244 43.1166 21.0785L39.2718 16.0485C38.6836 15.2772 38.922 14.2377 39.8063 13.7247C40.6829 13.215 41.8786 13.4162 42.4707 14.1908L44.8583 17.3127L50.9023 10.7201C51.5674 9.99914 52.7785 9.88513 53.6052 10.4585C54.4356 11.0387 54.5664 12.0916 53.9051 12.8159L46.2155 21.1992C45.8502 21.5915 45.2966 21.8229 44.716 21.8229Z" fill="#FAFAFA"/>
</svg>
