<svg width="111" height="111" viewBox="0 0 111 111" fill="none" xmlns="http://www.w3.org/2000/svg">
<path d="M9.41116 110.361C4.35609 110.361 0.245117 106.25 0.245117 101.195V85.1547C0.245117 84.3069 0.712585 83.5323 1.45503 83.1336C2.19748 82.7349 3.10492 82.7807 3.80612 83.2482L17.5552 92.4142C18.1922 92.8404 18.5772 93.5554 18.5772 94.3207V101.195C18.5772 106.25 14.4662 110.361 9.41116 110.361Z" fill="#90A4AE"/>
<path d="M91.9053 110.361C86.8502 110.361 82.7393 106.25 82.7393 101.195V94.3207C82.7393 93.5554 83.1196 92.8404 83.7613 92.4142L97.5103 83.2482C98.2115 82.7807 99.1236 82.7349 99.8614 83.1336C100.604 83.5323 101.071 84.3069 101.071 85.1547V101.195C101.071 106.25 96.9604 110.361 91.9053 110.361Z" fill="#90A4AE"/>
<path d="M18.5221 68.1976C16.6064 67.3268 15.7539 65.0582 16.6247 63.138L24.1409 46.6116C25.9924 42.5327 30.0896 39.8975 34.5718 39.8975H66.7492C71.2314 39.8975 75.3286 42.5327 77.1802 46.6162L84.6917 63.1425C85.5625 65.0628 84.7146 67.3268 82.7943 68.2022C82.2811 68.4313 20.4424 69.0684 18.5221 68.1976Z" fill="#ECEFF1"/>
<path d="M91.9055 96.6124H9.41116C4.35609 96.6124 0.245117 92.5014 0.245117 87.4463V78.2803C0.245117 70.7 6.41386 64.5312 13.9942 64.5312H87.3225C94.9028 64.5312 101.072 70.7 101.072 78.2803V87.4463C101.072 92.5014 96.9606 96.6124 91.9055 96.6124Z" fill="#607D8B"/>
<path d="M87.3273 71.4058C85.5857 71.4058 83.9221 70.4067 83.1522 68.7202L74.1373 48.8849C73.3903 47.2533 71.7542 46.1992 69.9622 46.1992H31.3549C29.5629 46.1992 27.9268 47.2533 27.1843 48.8849L18.1649 68.7202C17.12 71.0209 14.3977 72.0383 12.097 70.9934C9.79634 69.9485 8.7789 67.2307 9.82383 64.9255L18.8386 45.0902C21.0614 40.1955 25.9744 37.0332 31.3549 37.0332H69.9668C75.3473 37.0332 80.2603 40.1955 82.483 45.0947L91.4978 64.9255C92.5473 67.2307 91.5253 69.9485 89.2247 70.9934C88.6059 71.2729 87.9597 71.4058 87.3273 71.4058Z" fill="#607D8B"/>
<path d="M27.7432 87.4463H18.5772C16.0473 87.4463 13.9941 85.3931 13.9941 82.8633C13.9941 80.3335 16.0473 78.2803 18.5772 78.2803H27.7432C30.273 78.2803 32.3262 80.3335 32.3262 82.8633C32.3262 85.3931 30.273 87.4463 27.7432 87.4463Z" fill="white"/>
<path d="M82.7393 87.4463H73.5733C71.0434 87.4463 68.9902 85.3931 68.9902 82.8633C68.9902 80.3335 71.0434 78.2803 73.5733 78.2803H82.7393C85.2691 78.2803 87.3223 80.3335 87.3223 82.8633C87.3223 85.3931 85.2691 87.4463 82.7393 87.4463Z" fill="white"/>
<path d="M107.905 8.73758L83.8438 0.552311C83.1289 0.304828 82.3498 0.304828 81.6348 0.552311L57.574 8.73758C56.1761 9.20963 55.2412 10.5158 55.2412 11.9915V30.4061C55.2412 52.8812 80.3287 63.8071 81.3965 64.2609C82.2581 64.6275 83.216 64.6275 84.0821 64.2609C85.15 63.8026 110.237 52.8812 110.237 30.4061V11.9915C110.237 10.5158 109.303 9.20963 107.905 8.73758Z" fill="#4CAF50"/>
<path d="M97.7993 26.1166L85.196 42.1571C83.5919 44.2057 80.5855 44.5036 78.6148 42.8033L70.5945 35.9288C68.6696 34.2835 68.445 31.387 70.0995 29.4667C71.7448 27.5465 74.6413 27.3265 76.557 28.9718L80.9475 32.7344L90.5948 20.4565C92.1576 18.4675 95.0357 18.1146 97.0293 19.6866C99.0184 21.2448 99.3667 24.1275 97.7993 26.1166Z" fill="white"/>
<path d="M0.245117 87.4463V101.195C0.245117 106.25 4.35609 110.361 9.41116 110.361C14.4662 110.361 18.5772 106.25 18.5772 101.195V96.6123H9.41116C4.35609 96.6123 0.245117 92.5014 0.245117 87.4463Z" fill="#7D8F97"/>
<path d="M55.2414 46.1992H31.3547C29.5627 46.1992 27.9266 47.2533 27.1841 48.8849L20.0713 64.5313H55.2414V46.1992Z" fill="#CDD0D2"/>
<path d="M18.5772 87.4463C16.0474 87.4463 13.9942 85.3932 13.9942 82.8633C13.9942 80.3335 16.0474 78.2803 18.5772 78.2803H27.7432C30.2731 78.2803 32.3263 80.3335 32.3263 82.8633C32.3263 85.3932 30.2731 87.4463 27.7432 87.4463H18.5772ZM55.2413 64.5312H20.0713L18.1647 68.7201C17.3994 70.4067 15.7311 71.4058 13.9896 71.4058C13.3571 71.4058 12.7109 71.2729 12.0968 70.9979C9.89237 69.9942 8.86578 67.4598 9.70447 65.2233C4.21401 67.0244 0.245117 72.1986 0.245117 78.2803V87.4463C0.245117 92.5014 4.35609 96.6124 9.41116 96.6124H18.5772H55.2413V64.5312Z" fill="#546D79"/>
<path d="M55.2411 37.0332H31.3544C25.974 37.0332 21.061 40.1955 18.8428 45.0902L9.82341 64.9255C9.77758 65.0217 9.74092 65.1179 9.70425 65.2188C8.86556 67.4553 9.89216 69.9943 12.0966 70.9934C12.7107 71.2729 13.3523 71.4058 13.9894 71.4058C15.7309 71.4058 17.3991 70.4113 18.1645 68.7202L20.071 64.5313L27.1839 48.8849C27.9263 47.2533 29.5579 46.1992 31.3544 46.1992H55.2411V37.0332Z" fill="#546D79"/>
<path d="M27.7432 78.2803H18.5772C16.0473 78.2803 13.9941 80.3335 13.9941 82.8633C13.9941 85.3931 16.0473 87.4463 18.5772 87.4463H27.7432C30.273 87.4463 32.3262 85.3931 32.3262 82.8633C32.3262 80.3335 30.273 78.2803 27.7432 78.2803Z" fill="#DEDEDE"/>
<path d="M82.7393 0.369141C82.5835 0.369141 82.4277 0.378307 82.2719 0.401222C82.0565 0.433303 81.8411 0.483716 81.6348 0.552461L57.574 8.73773C56.1761 9.20979 55.2412 10.5205 55.2412 11.9917V30.4063C55.2412 38.7611 58.706 45.5165 63.1148 50.7319C70.5714 59.5543 80.7228 63.9723 81.3965 64.261C81.8273 64.4398 82.2856 64.5314 82.7393 64.5314V43.7612C82.3635 43.862 81.9785 43.9078 81.589 43.9078C80.5349 43.9078 79.4762 43.5458 78.6146 42.8033L70.5943 35.9288C68.6695 34.2835 68.4449 31.387 70.0994 29.4667C71.0068 28.4081 72.29 27.8673 73.5825 27.8673C74.6366 27.8673 75.6998 28.2293 76.5614 28.9672L80.952 32.7298L82.7393 30.4475V0.369141Z" fill="#429846"/>
<path d="M73.5778 27.8716C72.2854 27.8716 71.0022 28.4124 70.0947 29.4711C68.4448 31.3913 68.6694 34.2832 70.5943 35.9331L78.6146 42.8076C79.4762 43.5455 80.5348 43.9076 81.5889 43.9076C81.9785 43.9076 82.3635 43.8572 82.7439 43.7609V30.4472L80.9473 32.7342L76.5522 28.9715C75.6906 28.2336 74.6319 27.8716 73.5778 27.8716Z" fill="#DEDEDE"/>
</svg>
