<svg width="49" height="48" viewBox="0 0 49 48" fill="none" xmlns="http://www.w3.org/2000/svg">
<g clip-path="url(#clip0_111_446)">
<path d="M24.3965 45C35.9945 45 45.3965 35.598 45.3965 24C45.3965 12.402 35.9945 3 24.3965 3C12.7985 3 3.39648 12.402 3.39648 24C3.39648 35.598 12.7985 45 24.3965 45Z" stroke="black" stroke-width="3"/>
<path d="M45.3965 24C45.3965 12.402 35.9945 3 24.3965 3" stroke="#00A1EF" stroke-width="3"/>
</g>
<path d="M18.3537 33.4146V29.9895C19.5494 30.8614 20.9443 31.2973 22.5386 31.2973C23.5432 31.2973 24.3238 31.0814 24.8801 30.6496C25.4447 30.2179 25.727 29.6159 25.727 28.8437C25.727 28.0466 25.3783 27.4321 24.6808 27.0003C23.9916 26.5686 23.0409 26.3527 21.8286 26.3527H20.1721V23.3386H21.7041C24.029 23.3386 25.1914 22.5664 25.1914 21.022C25.1914 19.5689 24.2988 18.8424 22.5136 18.8424C21.318 18.8424 20.1555 19.2285 19.0263 20.0007V16.7873C20.2801 16.1563 21.7414 15.8408 23.4104 15.8408C25.2371 15.8408 26.657 16.2518 27.67 17.0738C28.6913 17.8958 29.2019 18.9628 29.2019 20.2747C29.2019 22.6079 28.0187 24.0693 25.6523 24.6588V24.7211C26.9144 24.8789 27.9108 25.3397 28.6415 26.1036C29.3721 26.8592 29.7375 27.7892 29.7375 28.8935C29.7375 30.5624 29.1272 31.8827 27.9066 32.8541C26.686 33.8256 25.0005 34.3114 22.8499 34.3114C21.0066 34.3114 19.5079 34.0125 18.3537 33.4146Z" fill="#00A1EF"/>
<defs>
<clipPath id="clip0_111_446">
<rect width="48" height="48" fill="white" transform="translate(0.396484)"/>
</clipPath>
</defs>
</svg>
