<svg width="49" height="48" viewBox="0 0 49 48" fill="none" xmlns="http://www.w3.org/2000/svg">
<g clip-path="url(#clip0_111_422)">
<path d="M24.3965 45C35.9945 45 45.3965 35.598 45.3965 24C45.3965 12.402 35.9945 3 24.3965 3C12.7985 3 3.39648 12.402 3.39648 24C3.39648 35.598 12.7985 45 24.3965 45Z" stroke="black" stroke-width="3"/>
<path d="M45.3965 24C45.3965 12.402 35.9945 3 24.3965 3" stroke="#00A1EF" stroke-width="3"/>
</g>
<path d="M27.259 15.7411V34H23.3357V20.1751C23.1198 20.366 22.8624 20.5487 22.5635 20.7231C22.2728 20.8891 21.9615 21.0428 21.6293 21.1839C21.2972 21.3168 20.9526 21.433 20.5956 21.5326C20.2385 21.624 19.8857 21.6904 19.5369 21.7319V18.4189C20.5582 18.12 21.5214 17.7381 22.4265 17.2731C23.3315 16.8081 24.1494 16.2974 24.8801 15.7411H27.259Z" fill="#00A1EF"/>
<defs>
<clipPath id="clip0_111_422">
<rect width="48" height="48" fill="white" transform="translate(0.396484)"/>
</clipPath>
</defs>
</svg>
