<svg width="49" height="48" viewBox="0 0 49 48" fill="none" xmlns="http://www.w3.org/2000/svg">
<g clip-path="url(#clip0_111_434)">
<path d="M24.3965 45C35.9945 45 45.3965 35.598 45.3965 24C45.3965 12.402 35.9945 3 24.3965 3C12.7985 3 3.39648 12.402 3.39648 24C3.39648 35.598 12.7985 45 24.3965 45Z" stroke="black" stroke-width="3"/>
<path d="M45.3965 24C45.3965 12.402 35.9945 3 24.3965 3" stroke="#00A1EF" stroke-width="3"/>
</g>
<path d="M22.2396 30.7368H29.8122V34H17.9302V32.6549C17.9302 31.7415 18.0839 30.9236 18.3911 30.2013C18.6983 29.4706 19.0844 28.8188 19.5494 28.2458C20.0144 27.6646 20.5209 27.154 21.0689 26.7139C21.6252 26.2655 22.1525 25.8628 22.6506 25.5058C23.1738 25.1321 23.6304 24.7751 24.0207 24.4346C24.4192 24.0942 24.7514 23.7579 25.0171 23.4258C25.2911 23.0854 25.4945 22.7449 25.6274 22.4045C25.7602 22.0558 25.8266 21.6863 25.8266 21.296C25.8266 20.5321 25.6108 19.955 25.179 19.5648C24.7472 19.1745 24.0871 18.9794 23.1987 18.9794C21.6626 18.9794 20.1929 19.5897 18.7896 20.8103V17.3478C20.3423 16.3431 22.0943 15.8408 24.0456 15.8408C24.9507 15.8408 25.7602 15.9612 26.4743 16.2019C27.1967 16.4344 27.807 16.7707 28.3052 17.2108C28.8034 17.6509 29.1812 18.1864 29.4386 18.8175C29.7043 19.4402 29.8371 20.1377 29.8371 20.9099C29.8371 21.7319 29.7084 22.4626 29.451 23.102C29.2019 23.7413 28.8656 24.3225 28.4422 24.8456C28.027 25.3688 27.5454 25.8503 26.9974 26.2904C26.4494 26.7222 25.8806 27.1415 25.2911 27.5484C24.8925 27.8307 24.5064 28.113 24.1328 28.3953C23.7674 28.6693 23.4436 28.9433 23.1613 29.2173C22.879 29.483 22.6548 29.7446 22.4887 30.002C22.3227 30.2594 22.2396 30.5043 22.2396 30.7368Z" fill="#00A1EF"/>
<defs>
<clipPath id="clip0_111_434">
<rect width="48" height="48" fill="white" transform="translate(0.396484)"/>
</clipPath>
</defs>
</svg>
