<svg width="55" height="55" viewBox="0 0 55 55" fill="none" xmlns="http://www.w3.org/2000/svg">
<path fill-rule="evenodd" clip-rule="evenodd" d="M27.3248 0.675293C12.5339 0.675293 0.5 12.7087 0.5 27.5001C0.5 42.2914 12.5339 54.3249 27.3248 54.3249C42.1166 54.3249 54.15 42.2914 54.15 27.5001C54.15 12.7087 42.1166 0.675293 27.3248 0.675293Z" fill="#8EE26B"/>
<path fill-rule="evenodd" clip-rule="evenodd" d="M31.0845 54.0601C42.8534 52.402 52.1925 43.0794 53.8765 31.3193L39.9024 17.3452C39.4576 16.8739 38.7185 16.8151 38.2032 17.2271C37.6606 17.6597 37.5724 18.4509 38.0063 18.9936C38.3798 19.4612 38.7186 19.9469 39.0233 20.4472L30.4822 11.9065C30.2933 11.7065 30.04 11.5697 29.7569 11.5267C26.5732 11.0438 23.3448 11.5163 20.4204 12.8923C17.4268 14.3005 14.9664 16.5649 13.3066 19.4399C11.6468 22.3165 10.9154 25.5784 11.1918 28.8761C11.4635 32.0959 12.6685 35.1287 14.6782 37.6433C14.7156 37.6901 14.7558 37.7336 14.798 37.7737L31.0845 54.0601Z" fill="#00DA80"/>
<path fill-rule="evenodd" clip-rule="evenodd" d="M30.1873 28.7983H32.8803V25.526L30.1873 28.7983ZM26.5534 29.2562L33.1662 21.2191C33.5037 20.8097 34.0623 20.6554 34.5619 20.8346C35.062 21.0139 35.3953 21.4873 35.3953 22.0188V28.7981H35.7857C36.4793 28.7981 37.0434 29.3611 37.0434 30.0559C37.0434 30.7494 36.4793 31.3132 35.7857 31.3132H35.3953V32.9811C35.3953 33.676 34.8324 34.2389 34.1375 34.2389C33.4427 34.2389 32.8802 33.676 32.8802 32.9811V31.3132H27.5239C27.0376 31.3132 26.5942 31.0324 26.387 30.5921C26.1793 30.1523 26.2442 29.6324 26.5534 29.2562ZM26.9842 32.9812C26.9842 32.2868 26.4213 31.7239 25.7265 31.7239H21.3634C21.9934 31.1048 22.714 30.5419 23.3878 30.0169C24.8056 28.9105 26.0297 27.9559 26.3943 26.6207C26.9318 24.6531 26.436 22.8884 25.035 21.7798C23.5511 20.6063 21.353 20.4198 19.6881 21.327C18.2188 22.1268 17.4737 23.6008 17.6448 25.3707C17.7106 26.0612 18.3259 26.5665 19.016 26.5015C19.7079 26.4353 20.214 25.8204 20.1482 25.1299C20.0746 24.3692 20.3176 23.8472 20.8908 23.5359C21.6579 23.1179 22.7927 23.2134 23.4751 23.7517C24.072 24.2256 24.2388 24.9673 23.9675 25.9589C23.8238 26.4869 22.7695 27.3095 21.8403 28.0345C20.4256 29.1387 18.6644 30.5125 17.7325 32.4325C17.5442 32.8221 17.5683 33.2822 17.7987 33.6489C18.0279 34.0165 18.4304 34.2389 18.8643 34.2389H25.7266C26.4213 34.239 26.9842 33.6761 26.9842 32.9812ZM39.9709 17.424C41.9806 19.9399 43.1856 22.9714 43.4573 26.1916C43.7338 29.4888 43.0037 32.752 41.3425 35.6269C38.4254 40.6807 33.1266 43.6567 27.3664 43.6567C26.4664 43.6567 25.5549 43.5845 24.6389 43.4357C24.1694 43.3592 23.7837 43.025 23.6413 42.5714C23.4986 42.1186 23.6233 41.6228 23.9642 41.2917L27.688 37.6759C28.1867 37.1918 28.9831 37.2033 29.4665 37.7017C29.9501 38.1996 29.9386 38.996 29.4403 39.4788L27.7353 41.1356C32.4588 41.01 36.7678 38.522 39.165 34.3696C42.0008 29.4587 41.5445 23.4228 38.0062 18.9935C37.5723 18.4508 37.6605 17.6596 38.2031 17.227C38.7458 16.7932 39.5371 16.8814 39.9709 17.424ZM15.484 20.6976C12.6487 25.6085 13.1045 31.6444 16.6429 36.0737C17.0768 36.6164 16.9885 37.4076 16.446 37.8415C16.2142 38.0255 15.9364 38.1158 15.6621 38.1158C15.2923 38.1158 14.9268 37.9545 14.6783 37.6432C12.6685 35.1286 11.4636 32.0958 11.1919 28.8761C10.9153 25.5784 11.6468 22.3165 13.3066 19.4399C14.9664 16.5649 17.4268 14.3005 20.4204 12.8923C23.3449 11.5163 26.5733 11.0438 29.7569 11.5267C30.2398 11.6002 30.6359 11.9459 30.7743 12.4142C30.9127 12.8816 30.7679 13.3876 30.4023 13.7115L26.4382 17.225C25.9184 17.686 25.1233 17.6378 24.6633 17.1179C24.2023 16.5985 24.2504 15.803 24.7699 15.3429L26.4172 13.8822C21.9168 14.1686 17.8155 16.6603 15.484 20.6976Z" fill="white"/>
</svg>
